<svg version="1.1"
  id="prefix__prefix___x35_5370fff-d7e2-4a7c-8080-55f1e259b78c"
  xmlns="http://www.w3.org/2000/svg"
  x="0"
  y="0"
  viewBox="0 0 1040.3 649.2"
  xml:space="preserve">
  <style>.prefix__prefix__st0{fill:#3f3d56}.prefix__prefix__st1{fill:#2f2e41}.prefix__prefix__st3{fill:#ef0092}.prefix__prefix__st6{opacity:.2;enable-background:new}.prefix__prefix__st7{fill:none;stroke:#535461;stroke-miterlimit:10}.prefix__prefix__st9{fill:#a8a8a8}.prefix__prefix__st11{fill:#f7c4a7}.prefix__prefix__st13{fill:#575988}.prefix__prefix__st14{opacity:.1;enable-background:new}.prefix__prefix__st15{fill:#e14b5a}</style>
  <path class="prefix__prefix__st0"
    d="M169.2 408.2h85.3c4.9 0 8.8 4 8.8 8.8v23.3c0 4.9-4 8.8-8.8 8.8h-85.3c-4.9 0-8.8-4-8.8-8.8V417c-.1-4.9 3.9-8.8 8.8-8.8z" />
  <path class="prefix__prefix__st1"
    d="M272.2 408.2h85.3c4.9 0 8.8 4 8.8 8.8v23.3c0 4.9-4 8.8-8.8 8.8h-85.3c-4.9 0-8.8-4-8.8-8.8V417c-.1-4.9 3.9-8.8 8.8-8.8z" />
  <path class="prefix__prefix__st0"
    d="M375.2 408.2h85.3c4.9 0 8.8 4 8.8 8.8v23.3c0 4.9-4 8.8-8.8 8.8h-85.3c-4.9 0-8.8-4-8.8-8.8V417c-.1-4.9 3.9-8.8 8.8-8.8z" />
  <path class="prefix__prefix__st1"
    d="M478.2 408.2h85.3c4.9 0 8.8 4 8.8 8.8v23.3c0 4.9-4 8.8-8.8 8.8h-85.3c-4.9 0-8.8-4-8.8-8.8V417c-.1-4.9 3.9-8.8 8.8-8.8z" />
  <path class="prefix__prefix__st0"
    d="M581.2 408.2h85.3c4.9 0 8.8 4 8.8 8.8v23.3c0 4.9-4 8.8-8.8 8.8h-85.3c-4.9 0-8.8-4-8.8-8.8V417c-.1-4.9 3.9-8.8 8.8-8.8z" />
  <path class="prefix__prefix__st1"
    d="M684.2 408.2h85.3c4.9 0 8.8 4 8.8 8.8v23.3c0 4.9-4 8.8-8.8 8.8h-85.3c-4.9 0-8.8-4-8.8-8.8V417c-.1-4.9 3.9-8.8 8.8-8.8z" />
  <path class="prefix__prefix__st0"
    d="M769.5 408.2h-85.3c-4.9 0-8.8-4-8.8-8.8V376c0-4.9 4-8.8 8.8-8.8h85.3c4.9 0 8.8 4 8.8 8.8v23.3c0 4.9-3.9 8.9-8.8 8.9z" />
  <path class="prefix__prefix__st1"
    d="M666.5 408.2h-85.3c-4.9 0-8.8-4-8.8-8.8V376c0-4.9 4-8.8 8.8-8.8h85.3c4.9 0 8.8 4 8.8 8.8v23.3c0 4.9-3.9 8.9-8.8 8.9z" />
  <path class="prefix__prefix__st0"
    d="M563.5 408.2h-85.3c-4.9 0-8.8-4-8.8-8.8V376c0-4.9 4-8.8 8.8-8.8h85.3c4.9 0 8.8 4 8.8 8.8v23.3c0 4.9-3.9 8.9-8.8 8.9z" />
  <path class="prefix__prefix__st1"
    d="M460.5 408.2h-85.3c-4.9 0-8.8-4-8.8-8.8V376c0-4.9 4-8.8 8.8-8.8h85.3c4.9 0 8.8 4 8.8 8.8v23.3c0 4.9-3.9 8.9-8.8 8.9z" />
  <path class="prefix__prefix__st0"
    d="M357.5 408.2h-85.3c-4.9 0-8.8-4-8.8-8.8V376c0-4.9 4-8.8 8.8-8.8h85.3c4.9 0 8.8 4 8.8 8.8v23.3c0 4.9-3.9 8.9-8.8 8.9z" />
  <path class="prefix__prefix__st1"
    d="M254.5 408.2h-85.3c-4.9 0-8.8-4-8.8-8.8V376c0-4.9 4-8.8 8.8-8.8h85.3c4.9 0 8.8 4 8.8 8.8v23.3c0 4.9-3.9 8.9-8.8 8.9z" />
  <path class="prefix__prefix__st0"
    d="M169.2 326.2h85.3c4.9 0 8.8 4 8.8 8.8v23.3c0 4.9-4 8.8-8.8 8.8h-85.3c-4.9 0-8.8-4-8.8-8.8V335c-.1-4.9 3.9-8.8 8.8-8.8z" />
  <path class="prefix__prefix__st1"
    d="M272.2 326.2h85.3c4.9 0 8.8 4 8.8 8.8v23.3c0 4.9-4 8.8-8.8 8.8h-85.3c-4.9 0-8.8-4-8.8-8.8V335c-.1-4.9 3.9-8.8 8.8-8.8z" />
  <path class="prefix__prefix__st0"
    d="M375.2 326.2h85.3c4.9 0 8.8 4 8.8 8.8v23.3c0 4.9-4 8.8-8.8 8.8h-85.3c-4.9 0-8.8-4-8.8-8.8V335c-.1-4.9 3.9-8.8 8.8-8.8z" />
  <path class="prefix__prefix__st1"
    d="M478.2 326.2h85.3c4.9 0 8.8 4 8.8 8.8v23.3c0 4.9-4 8.8-8.8 8.8h-85.3c-4.9 0-8.8-4-8.8-8.8V335c-.1-4.9 3.9-8.8 8.8-8.8z" />
  <path class="prefix__prefix__st0"
    d="M581.2 326.2h85.3c4.9 0 8.8 4 8.8 8.8v23.3c0 4.9-4 8.8-8.8 8.8h-85.3c-4.9 0-8.8-4-8.8-8.8V335c-.1-4.9 3.9-8.8 8.8-8.8z" />
  <path class="prefix__prefix__st1"
    d="M684.2 326.2h85.3c4.9 0 8.8 4 8.8 8.8v23.3c0 4.9-4 8.8-8.8 8.8h-85.3c-4.9 0-8.8-4-8.8-8.8V335c-.1-4.9 3.9-8.8 8.8-8.8z" />
  <path class="prefix__prefix__st0"
    d="M769.5 326.2h-85.3c-4.9 0-8.8-4-8.8-8.8V294c0-4.9 4-8.8 8.8-8.8h85.3c4.9 0 8.8 4 8.8 8.8v23.3c0 4.9-3.9 8.9-8.8 8.9z" />
  <path class="prefix__prefix__st1"
    d="M666.5 326.2h-85.3c-4.9 0-8.8-4-8.8-8.8V294c0-4.9 4-8.8 8.8-8.8h85.3c4.9 0 8.8 4 8.8 8.8v23.3c0 4.9-3.9 8.9-8.8 8.9z" />
  <path class="prefix__prefix__st0"
    d="M563.5 326.2h-85.3c-4.9 0-8.8-4-8.8-8.8V294c0-4.9 4-8.8 8.8-8.8h85.3c4.9 0 8.8 4 8.8 8.8v23.3c0 4.9-3.9 8.9-8.8 8.9z" />
  <path class="prefix__prefix__st1"
    d="M460.5 326.2h-85.3c-4.9 0-8.8-4-8.8-8.8V294c0-4.9 4-8.8 8.8-8.8h85.3c4.9 0 8.8 4 8.8 8.8v23.3c0 4.9-3.9 8.9-8.8 8.9z" />
  <path class="prefix__prefix__st0"
    d="M357.5 326.2h-85.3c-4.9 0-8.8-4-8.8-8.8V294c0-4.9 4-8.8 8.8-8.8h85.3c4.9 0 8.8 4 8.8 8.8v23.3c0 4.9-3.9 8.9-8.8 8.9z" />
  <path class="prefix__prefix__st1"
    d="M254.5 326.2h-85.3c-4.9 0-8.8-4-8.8-8.8V294c0-4.9 4-8.8 8.8-8.8h85.3c4.9 0 8.8 4 8.8 8.8v23.3c0 4.9-3.9 8.9-8.8 8.9z" />
  <path class="prefix__prefix__st0"
    d="M169.2 246.2h85.3c4.9 0 8.8 4 8.8 8.8v23.3c0 4.9-4 8.8-8.8 8.8h-85.3c-4.9 0-8.8-4-8.8-8.8V255c-.1-4.9 3.9-8.8 8.8-8.8z" />
  <path class="prefix__prefix__st1"
    d="M272.2 246.2h85.3c4.9 0 8.8 4 8.8 8.8v23.3c0 4.9-4 8.8-8.8 8.8h-85.3c-4.9 0-8.8-4-8.8-8.8V255c-.1-4.9 3.9-8.8 8.8-8.8z" />
  <path class="prefix__prefix__st0"
    d="M375.2 246.2h85.3c4.9 0 8.8 4 8.8 8.8v23.3c0 4.9-4 8.8-8.8 8.8h-85.3c-4.9 0-8.8-4-8.8-8.8V255c-.1-4.9 3.9-8.8 8.8-8.8z" />
  <path class="prefix__prefix__st1"
    d="M478.2 246.2h85.3c4.9 0 8.8 4 8.8 8.8v23.3c0 4.9-4 8.8-8.8 8.8h-85.3c-4.9 0-8.8-4-8.8-8.8V255c-.1-4.9 3.9-8.8 8.8-8.8z" />
  <path class="prefix__prefix__st0"
    d="M581.2 246.2h85.3c4.9 0 8.8 4 8.8 8.8v23.3c0 4.9-4 8.8-8.8 8.8h-85.3c-4.9 0-8.8-4-8.8-8.8V255c-.1-4.9 3.9-8.8 8.8-8.8z" />
  <path class="prefix__prefix__st1"
    d="M684.2 246.2h85.3c4.9 0 8.8 4 8.8 8.8v23.3c0 4.9-4 8.8-8.8 8.8h-85.3c-4.9 0-8.8-4-8.8-8.8V255c-.1-4.9 3.9-8.8 8.8-8.8z" />
  <path class="prefix__prefix__st0"
    d="M769.5 246.2h-85.3c-4.9 0-8.8-4-8.8-8.8V214c0-4.9 4-8.8 8.8-8.8h85.3c4.9 0 8.8 4 8.8 8.8v23.3c0 4.9-3.9 8.9-8.8 8.9z" />
  <path class="prefix__prefix__st1"
    d="M666.5 246.2h-85.3c-4.9 0-8.8-4-8.8-8.8V214c0-4.9 4-8.8 8.8-8.8h85.3c4.9 0 8.8 4 8.8 8.8v23.3c0 4.9-3.9 8.9-8.8 8.9z" />
  <path class="prefix__prefix__st0"
    d="M563.5 246.2h-85.3c-4.9 0-8.8-4-8.8-8.8V214c0-4.9 4-8.8 8.8-8.8h85.3c4.9 0 8.8 4 8.8 8.8v23.3c0 4.9-3.9 8.9-8.8 8.9z" />
  <path class="prefix__prefix__st1"
    d="M460.5 246.2h-85.3c-4.9 0-8.8-4-8.8-8.8V214c0-4.9 4-8.8 8.8-8.8h85.3c4.9 0 8.8 4 8.8 8.8v23.3c0 4.9-3.9 8.9-8.8 8.9z" />
  <path class="prefix__prefix__st0"
    d="M357.5 246.2h-85.3c-4.9 0-8.8-4-8.8-8.8V214c0-4.9 4-8.8 8.8-8.8h85.3c4.9 0 8.8 4 8.8 8.8v23.3c0 4.9-3.9 8.9-8.8 8.9z" />
  <path class="prefix__prefix__st1"
    d="M254.5 246.2h-85.3c-4.9 0-8.8-4-8.8-8.8V214c0-4.9 4-8.8 8.8-8.8h85.3c4.9 0 8.8 4 8.8 8.8v23.3c0 4.9-3.9 8.9-8.8 8.9z" />
  <path class="prefix__prefix__st0"
    d="M169.2 164.2h85.3c4.9 0 8.8 4 8.8 8.8v23.3c0 4.9-4 8.8-8.8 8.8h-85.3c-4.9 0-8.8-4-8.8-8.8V173c-.1-4.9 3.9-8.8 8.8-8.8z" />
  <path class="prefix__prefix__st1"
    d="M272.2 164.2h85.3c4.9 0 8.8 4 8.8 8.8v23.3c0 4.9-4 8.8-8.8 8.8h-85.3c-4.9 0-8.8-4-8.8-8.8V173c-.1-4.9 3.9-8.8 8.8-8.8z" />
  <path class="prefix__prefix__st0"
    d="M375.2 164.2h85.3c4.9 0 8.8 4 8.8 8.8v23.3c0 4.9-4 8.8-8.8 8.8h-85.3c-4.9 0-8.8-4-8.8-8.8V173c-.1-4.9 3.9-8.8 8.8-8.8z" />
  <path class="prefix__prefix__st1"
    d="M478.2 164.2h85.3c4.9 0 8.8 4 8.8 8.8v23.3c0 4.9-4 8.8-8.8 8.8h-85.3c-4.9 0-8.8-4-8.8-8.8V173c-.1-4.9 3.9-8.8 8.8-8.8z" />
  <path class="prefix__prefix__st0"
    d="M581.2 164.2h85.3c4.9 0 8.8 4 8.8 8.8v23.3c0 4.9-4 8.8-8.8 8.8h-85.3c-4.9 0-8.8-4-8.8-8.8V173c-.1-4.9 3.9-8.8 8.8-8.8z" />
  <path class="prefix__prefix__st1"
    d="M684.2 164.2h85.3c4.9 0 8.8 4 8.8 8.8v23.3c0 4.9-4 8.8-8.8 8.8h-85.3c-4.9 0-8.8-4-8.8-8.8V173c-.1-4.9 3.9-8.8 8.8-8.8z" />
  <linearGradient id="prefix__prefix__SVGID_1_"
    gradientUnits="userSpaceOnUse"
    x1="722.82"
    y1="580.25"
    x2="722.82"
    y2="624.43"
    gradientTransform="matrix(1 0 0 -1 0 652)">
    <stop offset="0"
      stop-color="gray"
      stop-opacity=".25" />
    <stop offset=".54"
      stop-color="gray"
      stop-opacity=".12" />
    <stop offset="1"
      stop-color="gray"
      stop-opacity=".1" />
  </linearGradient>
  <path d="M676.2 27.6h93.3c4.9 0 8.8 4 8.8 8.8v26.5c0 4.9-4 8.8-8.8 8.8h-93.3c-4.9 0-8.8-4-8.8-8.8V36.4c-.1-4.9 3.9-8.8 8.8-8.8z"
    fill="url(#prefix__prefix__SVGID_1_)" />
  <path class="prefix__prefix__st3"
    d="M765.5 70.2h-85.3c-4.9 0-8.8-4-8.8-8.8V38c0-4.9 4-8.8 8.8-8.8h85.3c4.9 0 8.8 4 8.8 8.8v23.3c0 4.9-3.9 8.9-8.8 8.9z" />
  <path class="prefix__prefix__st1"
    d="M666.5 164.2h-85.3c-4.9 0-8.8-4-8.8-8.8V132c0-4.9 4-8.8 8.8-8.8h85.3c4.9 0 8.8 4 8.8 8.8v23.3c0 4.9-3.9 8.9-8.8 8.9z" />
  <path class="prefix__prefix__st0"
    d="M563.5 164.2h-85.3c-4.9 0-8.8-4-8.8-8.8V132c0-4.9 4-8.8 8.8-8.8h85.3c4.9 0 8.8 4 8.8 8.8v23.3c0 4.9-3.9 8.9-8.8 8.9z" />
  <path class="prefix__prefix__st1"
    d="M460.5 164.2h-85.3c-4.9 0-8.8-4-8.8-8.8V132c0-4.9 4-8.8 8.8-8.8h85.3c4.9 0 8.8 4 8.8 8.8v23.3c0 4.9-3.9 8.9-8.8 8.9z" />
  <path class="prefix__prefix__st0"
    d="M357.5 164.2h-85.3c-4.9 0-8.8-4-8.8-8.8V132c0-4.9 4-8.8 8.8-8.8h85.3c4.9 0 8.8 4 8.8 8.8v23.3c0 4.9-3.9 8.9-8.8 8.9z" />
  <path class="prefix__prefix__st1"
    d="M254.5 164.2h-85.3c-4.9 0-8.8-4-8.8-8.8V132c0-4.9 4-8.8 8.8-8.8h85.3c4.9 0 8.8 4 8.8 8.8v23.3c0 4.9-3.9 8.9-8.8 8.9z" />
  <ellipse cx="499"
    cy="535.7"
    rx="499"
    ry="113.5"
    fill="#f5f5f5" />
  <path d="M113.9 484.7s9-30.4-1.7-52.8c-4.5-9.4-5.9-19.9-3.9-30.1 1-4.8 2.4-9.6 4.3-14.2"
    fill="none"
    stroke="#535461"
    stroke-width="2"
    stroke-miterlimit="10" />
  <path class="prefix__prefix__st3"
    d="M106 373.5c0 3.7 6.8 14.5 6.8 14.5s6.8-10.8 6.8-14.5c0-3.7-3-6.8-6.8-6.8s-6.8 3.1-6.8 6.8zm-11.1 20.6c2 3.1 13.6 8.5 13.6 8.5s-.2-12.7-2.2-15.9c-2-3.1-6.2-4-9.3-1.9-3.2 2.1-4.1 6.2-2.1 9.3zm.5 35.3c3.3 1.7 16 .5 16 .5s-6.6-10.9-9.9-12.6c-3.4-1.6-7.4-.2-9 3.2-1.6 3.3-.4 7.2 2.9 8.9zm6.3 26.6c3 2.2 15.7 3.2 15.7 3.2s-4.7-11.8-7.7-14.1c-3.1-2-7.3-1.2-9.3 1.9-1.9 3-1.3 6.8 1.3 9zm20.9-52.6c-2.7 2.6-15.1 5.3-15.1 5.3s3.1-12.4 5.7-15c2.7-2.6 6.9-2.5 9.5.1 2.6 2.7 2.6 7-.1 9.6zm7.1 31.2c-3.3 1.7-16 .5-16 .5s6.6-10.9 9.9-12.6c3.4-1.5 7.4 0 8.9 3.4 1.5 3.2.2 7-2.8 8.7zm2.7 31.3c-3 2.2-15.7 3.2-15.7 3.2s4.7-11.8 7.7-14.1c3.1-2 7.3-1.2 9.3 1.9 1.9 3 1.3 6.8-1.3 9zM597 312.4s32.9 32.9 14.3 81.7c-18.6 48.8 31.8 130 31.8 130l-1.5-.3c-67.6-12-101.1-89.2-63.6-146.6 14-21.3 25.5-46.4 19-64.8z" />
  <path class="prefix__prefix__st6"
    d="M597 312.4s32.9 32.9 14.3 81.7c-18.6 48.8 31.8 130 31.8 130l-1.5-.3c-67.6-12-101.1-89.2-63.6-146.6 14-21.3 25.5-46.4 19-64.8z" />
  <path class="prefix__prefix__st7"
    d="M597 312.4s18.6 40.3 0 73.2c-18.6 32.9-3.2 125.2 46.2 138.4" />
  <path class="prefix__prefix__st3"
    d="M538.4 445.4s37.5-6 40.9 27.7c3.4 33.7 72.2 38.3 72.2 38.3l-1.3.9c-56.8 37.3-111 23.7-102.8-25.7 3-18.5 2.8-37-9-41.2z" />
  <path d="M538.4 445.4s37.5-6 40.9 27.7c3.4 33.7 72.2 38.3 72.2 38.3l-1.3.9c-56.8 37.3-111 23.7-102.8-25.7 3-18.5 2.8-37-9-41.2z"
    opacity=".2"
    fill="#f5f5f5" />
  <path class="prefix__prefix__st7"
    d="M538.4 445.4s29.1 6.4 26.7 32.9 43.3 58.2 86.4 33.1" />
  <path class="prefix__prefix__st9"
    d="M823.9 522.8s-55.7-11.1-70.6-26-81.7-40.8-89.1-22.3c-7.4 18.6-100.3 81.7-37.1 92.9 63.2 11.1 148.5 14.8 167.1 7.4 18.6-7.4 29.7-52 29.7-52z" />
  <path class="prefix__prefix__st6"
    d="M627.2 560.5c63.1 11.1 148.5 14.8 167.1 7.4 14.1-5.7 24-32.8 27.8-45.5l1.9.4s-11.1 44.6-29.7 52c-18.6 7.4-104 3.7-167.1-7.4-18.2-3.2-23.4-10.8-21.5-20.3 1.5 6.2 7.9 11 21.5 13.4z" />
  <linearGradient id="prefix__prefix__SVGID_2_"
    gradientUnits="userSpaceOnUse"
    x1="885.623"
    y1="-76.33"
    x2="885.623"
    y2="526.594"
    gradientTransform="matrix(1 0 0 -1 -79.84 526.58)">
    <stop offset="0"
      stop-color="gray"
      stop-opacity=".25" />
    <stop offset=".54"
      stop-color="gray"
      stop-opacity=".12" />
    <stop offset="1"
      stop-color="gray"
      stop-opacity=".1" />
  </linearGradient>
  <path d="M936.6 28.2c-1-2.5-2.6-4.7-4.6-6.4-15-13.6-39.1-9.5-57.7-17.8C870 2.1 865.6-.6 861 .2c-6.5 1-12.5 8.4-18.2 5.1l.4 1.2-.4-.2L847 19c1.6 4.9 3.3 9.9 6.4 13.9-15.1 13.1-16.7 36.1-3.5 51.3 3.4 3.9 7.6 7 12.3 9.2.2.4.4.9.6 1.3l.5.2c1.2 2.8 2.1 5.8 2.7 8.8-4.8.7-13.2 6-21.4 13.8l-16.5-.6c-10.7-.4-21-3.9-29.6-10.1l-49.4-35.4c-3.5.3-6.8 1.8-9.5 4.2-6.1-6.4-11.3-13-10.9-17 0 0-22.9-42.9-31.3-21.5-8.3 21.5 15.6 44 15.6 44l15.2 19.7c-.6 3.5-1 6.9-1.1 10.4 18.8 21.5 84.4 40.9 84.4 40.9l10.2.5.1.5c-.6 2.7-.9 5.4-.9 8.2v2c.5 34.2 5.2 139 5.2 139 .9-.4 1.9-.8 2.8-1.1l-.7 9.3s-43.8 6.1-76.1 18.4c-32.3 12.3-33.4 26.6-33.4 26.6v126.3c-9.2 4.7-23.8 11-31.3 7.6-8.1-3.6-12.6-.6-13.4 2.6-.2.6-.2 1.3 0 1.9.1.3.2.6.3.8v.1c.1.3.3.5.5.7 3.1 3.1 70.9 29.6 86.5 25.5.5-.1 1-.3 1.4-.5.2-.1.3-.1.4-.2.1-.1.6-.3.8-.4.3-.2.3-.2.5-.3s.5-.3.7-.5l.4-.4c.1-.1.4-.3.6-.5s.3-.3.4-.5.4-.4.5-.6.2-.3.3-.5c.1-.2.3-.5.5-.7s.2-.3.3-.5c.1-.2.3-.5.4-.8.1-.3.2-.3.2-.5.1-.2.3-.6.4-.9s.1-.3.2-.5.2-.6.3-1c0-.2.1-.3.1-.5.1-.3.2-.7.3-1 0-.2.1-.3.1-.5.1-.4.2-.8.2-1.1 0-.1 0-.3.1-.4.1-.4.1-.8.2-1.2v-.4c.1-.5.1-.9.1-1.3v-.3c0-.5.1-1 .1-1.5v-1.9c0-6.1-.7-12.2-2-18.1l3.9-107.5c20.5.3 41-.4 61.4-2.3l2.2 51.3s0 33.7 11.5 49.1c9.8 13.1 21.2 71.2 24.2 87.6-4.2 8-12.3 18-26.3 17.7 0 0-26.4-2.3-24.9 5 0 .2.1.4.2.6l.3.6c.1.2.2.4.4.6l.1.1c.2.2.3.4.5.7l.6.6.2.2c.2.2.5.5.8.7 13.6 12.3 92.8 14.3 92.8 14.3v-.6c0-3.5-.5-22.2-5.3-36.2h1.1S901 462.8 891.7 450.5c0 0-2.5-54.4 3.1-88.5l1-.4c26.3-9.8 28.2-34 25.4-51.8 5 1.6 7.9 2.7 7.9 2.7s-.1-.8-.3-2.1l.3.1s-.5-3.3-1.3-8.3c-1.9-13.9-5.5-38.3-9.4-49.8-.6-2.5-1.2-4.7-1.8-6.3-2.2-6.9-3.8-14-4.6-21.2-1.1-9.3-1.6-18.8-1.6-28.2.1-12.6 1-25.1 2.9-37.6 1.6-10.9 3-23.2 2.9-31.9.1-3-.1-6-.6-9-1.4-6.4-7.5-10.5-13.9-13.1-.4-.2-.8-.3-1.3-.5.2-2.4.4-5.1.6-8 1.5 1.1 3.5 1.5 5.3 1.1 2.8-.6 4.7-2.9 6.5-5 9.2-11.4 18.7-23.2 22.3-37.3 1.4-6.3 2.1-12.7 2-19.2v-1.1c.4-2.2.2-4.6-.5-6.9z"
    fill="url(#prefix__prefix__SVGID_2_)" />
  <path class="prefix__prefix__st11"
    d="M852.5 83.5s14 21 11 31 33 4 33 4 1-39 8-48-52 13-52 13zM760 97s-29-24-28-33c0 0-22-42-30-21s15 43 15 43l28 37 15-26z" />
  <path d="M730.5 473.5s-27 17-38 12-15 3-12 6 68 29 83 25 7.4-36.8 7.4-36.8l-40.4-6.2zm143 73s-6.5 27.5-29 27c0 0-34-3-21 9s89 14 89 14 0-41-14-50-25 0-25 0z"
    fill="#535461" />
  <path class="prefix__prefix__st13"
    d="M832.5 352.5l3 70s0 33 11 48 24 90 24 90h38s-11-101-20-113c0 0-4-89 10-109l-66 14z" />
  <path class="prefix__prefix__st14"
    d="M832.5 352.5l3 70s0 33 11 48 24 90 24 90h38s-11-101-20-113c0 0-4-89 10-109l-66 14z" />
  <path class="prefix__prefix__st13"
    d="M911.5 289.5s23 55-19 71-118 14-118 14l-4 116s-47 6-48-9v-127s1-14 32-26 73-18 73-18l2-26 82 5z" />
  <path class="prefix__prefix__st14"
    d="M874.7 108.3c8-.9 16.1.3 23.5 3.3 6.1 2.6 12 6.6 13.4 12.9 1.6 7.4-.2 23.9-2.2 37.9-3.2 22-3.6 44.2-1.2 66.3 1 9.2 2.5 17.2 4.4 20.8 6 11 12 63 12 63s-66-25-99-10c0 0-4.5-102.5-5-136-.5-25.9 32.4-55.5 43.4-56.5 6.4-.6 4.2-1 10.7-1.7z" />
  <path class="prefix__prefix__st15"
    d="M874.7 106.3c8-.9 16.1.3 23.5 3.3 6.1 2.6 12 6.6 13.4 12.9 1.6 7.4-.2 23.9-2.2 37.9-3.2 22-3.6 44.2-1.2 66.3.8 7.1 2.3 14 4.4 20.8 4.5 13.5 12 63 12 63s-66-25-99-10c0 0-4.5-102.5-5-136-.5-25.9 32.4-55.5 43.4-56.5 6.4-.6 4.2-1 10.7-1.7z" />
  <path class="prefix__prefix__st14"
    d="M892.5 161.5l-71-4s-4.5-34.8 5.7-34.4l70.3 2.4s15 18-5 36z" />
  <path class="prefix__prefix__st15"
    d="M892.5 159.5l-81-4s-63-19-81-40c0 0 1-37 21-39l47.3 34.7c8.3 6.1 18.2 9.5 28.4 9.9l70.3 2.4s15 18-5 36z" />
  <path class="prefix__prefix__st14"
    d="M896 88c1.2-9.5 5.5-12.6 8.5-16.5 7-9-52 13-52 13 3.1 4.7 5.7 9.6 8 14.7 4.7 2.2 9.8 3.3 15 3.3 8.7 0 14.3-9.4 20.5-14.5z" />
  <circle class="prefix__prefix__st11"
    cx="875.5"
    cy="65.5"
    r="36" />
  <path class="prefix__prefix__st14"
    d="M852.8 40.3c-3.8-4.2-5.7-9.8-7.4-15.2l-4-12.4c5.4 3.2 11.2-4 17.4-5 4.4-.7 8.7 1.9 12.8 3.8 17.8 8.1 41 4.1 55.3 17.4 2 1.7 3.5 3.8 4.4 6.3.7 2.3.9 4.6.8 7 .1 6.3-.5 12.6-1.9 18.8-3.4 13.8-12.5 25.4-21.4 36.5-1.7 2.1-3.6 4.4-6.2 4.9-5.2 1.1-9.1-4.4-11.1-9.3-2.6-6.5-4.6-13.2-5.8-20.1-.5-2.9-.9-5.9-2.4-8.5-3.1-5.5-10.7-10.7-15.4-14.9s-10.9-4.7-15.1-9.3z" />
  <path d="M852.8 39.3c-3.8-4.2-5.7-9.8-7.4-15.2l-4-12.4c5.4 3.2 11.2-4 17.4-5 4.4-.7 8.7 1.9 12.8 3.8 17.8 8.1 41 4.1 55.3 17.4 2 1.7 3.5 3.8 4.4 6.3.7 2.3.9 4.6.8 7 .1 6.3-.5 12.6-1.9 18.8-3.4 13.8-12.5 25.4-21.4 36.5-1.7 2.1-3.6 4.4-6.2 4.9-5.2 1.1-9.1-4.4-11.1-9.3-2.6-6.5-4.6-13.2-5.8-20.1-.5-2.9-.9-5.9-2.4-8.5-3.1-5.5-10.7-10.7-15.4-14.9s-10.9-4.7-15.1-9.3z"
    fill="#632652" />
  <ellipse class="prefix__prefix__st11"
    cx="885"
    cy="69.5"
    rx="3"
    ry="6.5" />
  <path class="prefix__prefix__st14"
    d="M903 243s-2 6-12 5-39-3-39 0" />
  <path d="M823.5 581.5c-1.8-1.7-2.7-3-2.9-4.2-.3 1.3.5 3 2.9 5.2 13 12 89 14 89 14v-1c-.5 0-76-2-89-14zm-60-67c-15 4-80-22-83-25-.4-.4-.7-.9-.8-1.5-.4 1.2 0 2.5.8 3.5 3 3 68 29 83 25 7.7-2.1 9.4-11.7 9.3-20.6-.1 8.3-2.2 16.7-9.3 18.6z"
    opacity=".5"
    fill="#fff" />
  <path d="M502.1 503.7c.8 0 1.5-.7 1.5-1.5s-.7-1.5-1.5-1.5-1.5.7-1.5 1.5.7 1.5 1.5 1.5z"
    fill="#67647e" />
  <path class="prefix__prefix__st9"
    d="M91.5 477.2s37.3-1.2 48.6-9.2 57.4-17.6 60.2-4.7 56.1 63.9 13.9 64.3-97.9-6.6-109.2-13.4-13.5-37-13.5-37z" />
  <path class="prefix__prefix__st6"
    d="M215 523.1c-42.1.3-97.9-6.6-109.1-13.4-8.6-5.2-12-23.9-13.1-32.5h-1.3s2.4 30.1 13.6 36.9 67 13.8 109.1 13.5c12.2-.1 16.4-4.4 16.1-10.8-1.7 3.8-6.3 6.2-15.3 6.3z" />
  <path class="prefix__prefix__st3"
    d="M1031.5 573.2h-85.3c-4.9 0-8.8-4-8.8-8.8V541c0-4.9 4-8.8 8.8-8.8h85.3c4.9 0 8.8 4 8.8 8.8v23.3c0 4.9-3.9 8.9-8.8 8.9z" />
  <path class="prefix__prefix__st14"
    d="M1031.5 573.2h-85.3c-4.9 0-8.8-4-8.8-8.8V541c0-4.9 4-8.8 8.8-8.8h85.3c4.9 0 8.8 4 8.8 8.8v23.3c0 4.9-3.9 8.9-8.8 8.9z" />
  <path class="prefix__prefix__st3"
    d="M946.2 493.2h85.3c4.9 0 8.8 4 8.8 8.8v23.3c0 4.9-4 8.8-8.8 8.8h-85.3c-4.9 0-8.8-4-8.8-8.8V502c-.1-4.9 3.9-8.8 8.8-8.8zm85.3 0h-85.3c-4.9 0-8.8-4-8.8-8.8V461c0-4.9 4-8.8 8.8-8.8h85.3c4.9 0 8.8 4 8.8 8.8v23.3c0 4.9-3.9 8.9-8.8 8.9z" />
  <path class="prefix__prefix__st14"
    d="M1031.5 493.2h-85.3c-4.9 0-8.8-4-8.8-8.8V461c0-4.9 4-8.8 8.8-8.8h85.3c4.9 0 8.8 4 8.8 8.8v23.3c0 4.9-3.9 8.9-8.8 8.9z" />
  <path class="prefix__prefix__st3"
    d="M946.2 411.2h85.3c4.9 0 8.8 4 8.8 8.8v23.3c0 4.9-4 8.8-8.8 8.8h-85.3c-4.9 0-8.8-4-8.8-8.8V420c-.1-4.9 3.9-8.8 8.8-8.8z" />
</svg>
