<?xml version="1.0" encoding="utf-8"?>
<!-- Generator: Adobe Illustrator 21.1.0, SVG Export Plug-In . SVG Version: 6.00 Build 0)  -->
<svg version="1.1" id="Layer_1" xmlns="http://www.w3.org/2000/svg" xmlns:xlink="http://www.w3.org/1999/xlink" x="0px" y="0px"
	 viewBox="0 0 1862.7384033 1966.361084" style="enable-background:new 0 0 1862.7384033 1966.361084;" xml:space="preserve">
<style type="text/css">
	.st0{fill:#2B323D;}
	.st1{fill:#EF0092;}
</style>
<rect x="-21.1199512" y="-29.1352768" class="st0" width="1901.6196289" height="2027.5944824"/>
<path class="st0" d="M1044.0849609,1717.3309326c0.0003662-0.6922607,0.0007324-1.3846436,0.0010986-2.0770264
	c56.0402832,0,112.0844727,0.402832,168.1196289-0.1280518c44.4400635-0.4208984,89.4191895,2.6894531,133.0777588-6.4327393
	c90.4648438-18.9018555,162.4829102-67.6463623,214.5269775-143.8571777
	c61.3494873-89.8372803,72.7019043-188.5423584,41.8771973-291.2885742
	c-20.788208-69.2921143-62.4969482-126.4584961-121.2694092-168.7486572
	c-54.1116943-38.9366455-113.3320312-64.8652344-182.7243652-65.0975342
	c-72.1903076-0.2415771-144.4086914-0.3834229-216.6053467-1.401123
	c-15.3439941-0.2161865-17.0421143,8.0395508-15.3397217,20.1478271c0.706665,5.026001,1.6806641,10.9573975-3.9082031,13.9979248
	c-5.7279053,3.1160889-9.835083-1.4802246-13.6894531-4.6862793c-31.5106201-26.2106934-62.7780762-52.7153931-94.4326782-78.75
	c-8.2919312-6.8195801-9.5142212-13.0698853-0.6517334-19.390564
	c33.4555664-23.8602905,64.3877563-50.7069702,94.4612427-78.6164551c3.6906738-3.4249878,7.7481689-8.0743408,13.5175781-4.5783691
	c4.8032227,2.9105835,3.1228027,8.0748901,2.7492676,12.642395c-1.623291,19.8551025,1.5029297,23.1712036,21.4854736,23.2714233
	c41.588501,0.2085571,83.1610107-1.7727661,124.6954346-2.210022
	c129.3850098-1.3619385,258.7955322-0.4660034,388.1948242-0.0510864
	c14.4481201,0.0463257,21.6314697-4.8414307,21.5861816-19.8466187
	c-0.2390137-79.1346436-0.2120361-158.2700195-0.3538818-237.4049683
	c-0.0234375-13.0361328-6.8041992-18.7965088-19.8031006-17.9542236
	c-10.3598633,0.6712646-20.7548828,1.100769-31.1348877,1.1127319
	c-165.8110352,0.1914673-331.6219482,0.3182373-497.4329834,0.4050903
	c-27.2399902,0.0142822-54.9168091,1.0142212-80.8152466,8.2091675
	c-144.4296875,40.1243286-236.6774292,164.1002808-244.3599243,304.7246094
	c-7.168396,131.213501,49.536377,232.0550537,156.7866821,305.3886719
	c39.1038818,26.737793,82.8866577,45.376709,129.8619995,49.1046143
	c93.3175049,7.4051514,187.0849609,2.7355957,280.6329346,5.1463623
	c11.6234131,0.2995605,17.2431641-4.5894775,16.293335-16.6409912c-0.4289551-5.442749-3.4779053-12.6679688,3.199707-15.605957
	c6.7470703-2.9683838,11.6375732,3.317749,16.5447998,7.0600586c30.7478027,23.4494629,61.1296387,47.3905029,92.230957,70.3587646
	c12.5367432,9.2585449,9.8946533,15.9017334-0.3770752,24.1827393
	c-29.2078857,23.5471191-58.1534424,47.4193115-87.1987305,71.1678467
	c-4.4781494,3.661499-8.9035645,8.0662842-15.3321533,5.9837646c-7.2995605-2.364624-6.3763428-8.9803467-6.0095215-14.5809326
	c0.9749756-14.8758545-6.671875-18.4844971-20.2127686-18.4577637
	c-180.8212891,0.3588867-361.6434937,0.4312744-542.465271,0.3410645
	c-26.4429932-0.0130615-25.7276001-0.5797119-25.4966431,25.1572266
	c0.7151489,79.7069092,2.4371948,159.4384766-1.0574951,239.1101074
	c-0.6939697,15.8221436,5.7559814,20.4274902,20.0755615,20.3967285
	C856.916626,1717.2331543,950.5008545,1717.3309326,1044.0849609,1717.3309326z M624.4838257,1317.4840088
	c0.0585327,0,0.1171265,0,0.1755981,0c0-98.8050537-0.2980347-197.6112061,0.1340332-296.4143066
	c0.1967773-45.0002441,2.5613403-89.555603,12.3720093-134.1327515
	c17.9557495-81.5866089,53.5413208-152.4929199,110.1100464-214.218811
	c86.3532715-94.225769,189.4584351-146.1519775,319.8793945-147.2983398
	c167.5629883-1.4729004,335.0955811-1.0358887,502.6427002-0.5888672
	c46.387085,0.1237793,46.3168945,0.4105835,46.4666748-45.7443237c0.2268066-69.905304,0.5583496-139.8102722,0.8531494-209.7153625
	c0.0717773-17.0442657-4.9610596-21.4082794-21.8824463-20.2872009
	c-14.3912354,0.9534149-28.8381348,1.5119171-43.2595215,1.4950104
	c-166.9875488-0.1956177-333.9954834,0.9093475-500.9537354-1.4536133
	c-81.4247437-1.1523895-158.2474976,15.8508759-232.9086914,45.170517
	C702.5840454,339.6644897,604.4349365,409.8026428,523.6974487,504.419342
	c-68.1264038,79.837738-115.3753357,170.3235779-146.2078857,270.5489807
	c-21.4820251,69.8303223-27.0736389,141.7095947-27.9852905,213.1977539
	c-3.0057068,235.6956177-1.8926086,471.4428101-2.8077087,707.1685181
	c-0.0645752,16.6384277,7.3410034,20.7161865,21.991272,20.7285156
	c79.1523132,0.0661621,158.3045959,0.5223389,237.4560242,0.9916992
	c12.5880737,0.074707,18.6159668-4.2119141,18.5723267-18.2249756
	C624.3198242,1571.7155762,624.4838257,1444.5996094,624.4838257,1317.4840088z"/>
<path class="st0" d="M1862.3326416,1966.361084c0.0010986-648.3117676-0.0715332-1296.6235352,0.4057617-1944.9349365
	c0.0124512-17.0568695-3.5821533-21.4419918-21.2142334-21.4260864
	C1234.8150635,0.547293,628.1051636,0.539956,21.3959141,0.0303803C4.0244341,0.01579-0.0133898,4.1099687,0.0000333,21.4368744
	c0.4968744,641.3782959,0.4168518,1282.7570801,0.4113749,1924.1357422
	c-0.0000595,6.9295654-0.053064,13.8588867-0.0813519,20.7884521c-1.0668333-0.7557373-3.6159284,1.753418-3.5039368-1.7349854
	c0.1482594-4.6182861,0.0365212-9.2452393,0.0365212-13.8684082c0-646.0953369,0.0455902-1292.1905518-0.3248503-1938.2855225
	C-3.4696634-0.5283809-0.534373-3.4644618,12.4662132-3.456543C625.0428467-3.083405,1237.619873-3.0834045,1850.1965332-3.4565427
	c13.0006104-0.0079191,15.9360352,2.9281619,15.9284668,15.9286556
	c-0.3703613,646.0950317-0.3132324,1292.1901855-0.5395508,1938.2855225
	C1865.5837402,1955.8320312,1869.5847168,1962.5146484,1862.3326416,1966.361084z"/>
<path class="st1" d="M1044.0849609,1717.3309326c-93.5841064,0-187.168335-0.0977783-280.7519531,0.1040039
	c-14.3195801,0.0307617-20.7695312-4.574585-20.0755615-20.3967285
	c3.4946899-79.6716309,1.772644-159.4031982,1.0574951-239.1101074
	c-0.230957-25.7369385-0.9463501-25.1702881,25.4966431-25.1572266c180.8217773,0.09021,361.6439819,0.0178223,542.465271-0.3410645
	c13.5408936-0.0267334,21.1877441,3.5819092,20.2127686,18.4577637c-0.3668213,5.6005859-1.2900391,12.2163086,6.0095215,14.5809326
	c6.4285889,2.0825195,10.8540039-2.3222656,15.3321533-5.9837646
	c29.0452881-23.7485352,57.9908447-47.6207275,87.1987305-71.1678467
	c10.2717285-8.2810059,12.9138184-14.9241943,0.3770752-24.1827393
	c-31.1013184-22.9682617-61.4831543-46.9093018-92.230957-70.3587646
	c-4.9072266-3.7423096-9.7977295-10.0284424-16.5447998-7.0600586c-6.6776123,2.9379883-3.6286621,10.163208-3.199707,15.605957
	c0.9498291,12.0515137-4.6699219,16.9405518-16.293335,16.6409912
	c-93.5479736-2.4107666-187.3154297,2.2587891-280.6329346-5.1463623
	c-46.9753418-3.7279053-90.7581177-22.3668213-129.8619995-49.1046143
	c-107.2503052-73.3336182-163.9550781-174.1751709-156.7866821-305.3886719
	c7.6824951-140.6243286,99.9302368-264.6002808,244.3599243-304.7246094
	c25.8984375-7.1949463,53.5752563-8.1948853,80.8152466-8.2091675c165.8110352-0.086853,331.6219482-0.213623,497.4329834-0.4050903
	c10.3800049-0.0119629,20.7750244-0.4414673,31.1348877-1.1127319c12.9989014-0.8422852,19.7796631,4.9180908,19.8031006,17.9542236
	c0.1418457,79.1349487,0.1148682,158.2703247,0.3538818,237.4049683
	c0.0452881,15.005188-7.1380615,19.8929443-21.5861816,19.8466187
	c-129.399292-0.414917-258.8098145-1.3108521-388.1948242,0.0510864
	c-41.5344238,0.4372559-83.1069336,2.4185791-124.6954346,2.210022
	c-19.9825439-0.1002197-23.1087646-3.4163208-21.4854736-23.2714233c0.3735352-4.5675049,2.0539551-9.7318115-2.7492676-12.642395
	c-5.7694092-3.4959717-9.8269043,1.1533813-13.5175781,4.5783691
	c-30.0734863,27.9094849-61.0056763,54.7561646-94.4612427,78.6164551
	c-8.8624878,6.3206787-7.6401978,12.5709839,0.6517334,19.390564c31.6546021,26.0346069,62.9220581,52.5393066,94.4326782,78.75
	c3.8543701,3.2060547,7.9615479,7.8023682,13.6894531,4.6862793c5.5888672-3.0405273,4.6148682-8.9719238,3.9082031-13.9979248
	c-1.7023926-12.1082764-0.0042725-20.3640137,15.3397217-20.1478271
	c72.1966553,1.0177002,144.4150391,1.1595459,216.6053467,1.401123
	c69.392334,0.2322998,128.6126709,26.1608887,182.7243652,65.0975342
	c58.7724609,42.2901611,100.4812012,99.456543,121.2694092,168.7486572
	c30.824707,102.7462158,19.47229,201.4512939-41.8771973,291.2885742
	c-52.0440674,76.2108154-124.0621338,124.9553223-214.5269775,143.8571777
	c-43.6585693,9.1221924-88.6376953,6.0118408-133.0777588,6.4327393
	c-56.0351562,0.5308838-112.0793457,0.1280518-168.1196289,0.1280518
	C1044.0856934,1715.9462891,1044.0853271,1716.6386719,1044.0849609,1717.3309326z"/>
<path class="st1" d="M624.4838257,1317.4840088c0,127.1156006-0.1640015,254.2315674,0.2323608,381.3458252
	c0.0436401,14.0130615-5.9842529,18.2996826-18.5723267,18.2249756
	c-79.1514282-0.4693604-158.3037109-0.9255371-237.4560242-0.9916992
	c-14.6502686-0.0123291-22.0558472-4.0900879-21.991272-20.7285156
	c0.9151001-235.725708-0.197998-471.4729004,2.8077087-707.1685181
	c0.9116516-71.4881592,6.5032654-143.3674316,27.9852905-213.1977539
	c30.83255-100.2254028,78.0814819-190.7112427,146.2078857-270.5489807
	c80.7374878-94.6166992,178.8865967-164.7548523,294.4155884-210.1233826
	c74.6611938-29.3196411,151.4839478-46.3229065,232.9086914-45.170517
	c166.958252,2.3629608,333.9661865,1.2579956,500.9537354,1.4536133
	c14.4213867,0.0169067,28.8682861-0.5415955,43.2595215-1.4950104c16.9213867-1.1210785,21.9542236,3.2429352,21.8824463,20.2872009
	c-0.2947998,69.9050903-0.6263428,139.8100586-0.8531494,209.7153625
	c-0.1497803,46.1549072-0.0795898,45.868103-46.4666748,45.7443237
	c-167.5471191-0.4470215-335.0797119-0.8840332-502.6427002,0.5888672
	c-130.4209595,1.1463623-233.526123,53.0725708-319.8793945,147.2983398
	c-56.5687256,61.7258911-92.1542969,132.6322021-110.1100464,214.218811
	c-9.8106689,44.5771484-12.1752319,89.1325073-12.3720093,134.1327515
	c-0.4320679,98.8031006-0.1340332,197.6092529-0.1340332,296.4143066
	C624.6009521,1317.4840088,624.5423584,1317.4840088,624.4838257,1317.4840088z"/>
</svg>
