---
---
<svg version="1.1" id="Layer_1" xmlns="http://www.w3.org/2000/svg" x="0" y="0" viewBox="0 0 1862.738 1966.361" xml:space="preserve"><style>.st0{fill:#2b323d}.st1{fill:#ef0092}</style><path class="st0" d="M-21.12-29.135H1880.5v2027.594H-21.12z"/><path class="st0" d="M1044.085 1717.33l.001-2.076c56.04 0 112.085.403 168.12-.128 44.44-.421 89.419 2.69 133.077-6.433 90.465-18.902 162.483-67.646 214.527-143.857 61.35-89.837 72.702-188.542 41.878-291.289-20.789-69.292-62.497-126.458-121.27-168.748-54.111-38.937-113.332-64.866-182.724-65.098-72.19-.241-144.409-.383-216.605-1.401-15.344-.216-17.043 8.04-15.34 20.148.706 5.026 1.68 10.957-3.908 13.998-5.728 3.116-9.836-1.48-13.69-4.686-31.51-26.211-62.778-52.716-94.433-78.75-8.291-6.82-9.514-13.07-.651-19.391 33.455-23.86 64.387-50.707 94.461-78.616 3.69-3.425 7.748-8.075 13.518-4.579 4.803 2.91 3.122 8.075 2.749 12.643-1.623 19.855 1.503 23.17 21.485 23.271 41.589.209 83.161-1.773 124.696-2.21 129.385-1.362 258.795-.466 388.195-.051 14.448.046 21.631-4.842 21.586-19.847-.24-79.134-.212-158.27-.354-237.405-.024-13.036-6.804-18.796-19.803-17.954-10.36.671-20.755 1.1-31.135 1.113-165.811.191-331.622.318-497.433.405-27.24.014-54.917 1.014-80.815 8.209-144.43 40.124-236.678 164.1-244.36 304.725-7.169 131.213 49.536 232.055 156.786 305.388 39.104 26.738 82.887 45.377 129.862 49.105 93.318 7.405 187.085 2.736 280.633 5.146 11.624.3 17.243-4.59 16.294-16.64-.43-5.443-3.478-12.669 3.2-15.607 6.746-2.968 11.637 3.318 16.544 7.06 30.748 23.45 61.13 47.39 92.231 70.36 12.537 9.258 9.895 15.9-.377 24.182-29.208 23.547-58.153 47.42-87.199 71.168-4.478 3.661-8.903 8.066-15.332 5.984-7.3-2.365-6.376-8.98-6.01-14.581.976-14.876-6.671-18.485-20.212-18.458-180.821.359-361.644.431-542.465.34-26.443-.012-25.728-.579-25.497 25.158.715 79.707 2.437 159.439-1.058 239.11-.694 15.822 5.756 20.428 20.076 20.397 93.584-.202 187.168-.104 280.752-.104zm-419.601-399.846h.175c0-98.805-.298-197.611.134-296.414.197-45 2.562-89.556 12.372-134.133 17.956-81.587 53.542-152.493 110.11-214.219 86.354-94.226 189.459-146.152 319.88-147.298 167.563-1.473 335.095-1.036 502.643-.59 46.387.125 46.317.412 46.466-45.743.227-69.906.559-139.81.853-209.716.072-17.044-4.96-21.408-21.882-20.287-14.391.953-28.838 1.512-43.26 1.495-166.987-.196-333.995.91-500.953-1.454-81.425-1.152-158.248 15.851-232.909 45.171-115.529 45.368-213.678 115.507-294.416 210.123-68.126 79.838-115.375 170.324-146.207 270.55-21.482 69.83-27.074 141.709-27.986 213.197-3.005 235.696-1.892 471.443-2.807 707.169-.065 16.638 7.34 20.716 21.99 20.728 79.153.066 158.305.522 237.457.992 12.588.075 18.616-4.212 18.572-18.225-.396-127.114-.232-254.23-.232-381.346z"/><path class="st0" d="M1862.333 1966.361c0-648.312-.072-1296.623.405-1944.935.013-17.057-3.582-21.442-21.214-21.426C1234.815.547 628.105.54 21.396.03 4.024.016-.014 4.11 0 21.437c.497 641.378.417 1282.757.411 1924.136 0 6.93-.053 13.859-.08 20.788-1.068-.756-3.617 1.753-3.505-1.735.148-4.618.037-9.245.037-13.868 0-646.096.045-1292.19-.325-1938.286-.008-13 2.928-15.936 15.928-15.929 612.577.374 1225.154.374 1837.73 0 13.001-.007 15.937 2.929 15.929 15.93-.37 646.094-.313 1292.19-.54 1938.285-.001 5.074 4 11.757-3.252 15.603z"/><path class="st1" d="M1044.085 1717.33c-93.584 0-187.168-.097-280.752.105-14.32.03-20.77-4.575-20.076-20.397 3.495-79.671 1.773-159.403 1.058-239.11-.231-25.737-.946-25.17 25.497-25.157 180.821.09 361.644.018 542.465-.341 13.54-.027 21.188 3.582 20.213 18.458-.367 5.6-1.29 12.216 6.01 14.58 6.428 2.083 10.853-2.322 15.331-5.983 29.046-23.749 57.991-47.621 87.199-71.168 10.272-8.281 12.914-14.924.377-24.183-31.101-22.968-61.483-46.91-92.23-70.359-4.908-3.742-9.799-10.028-16.546-7.06-6.677 2.938-3.628 10.164-3.2 15.606.95 12.052-4.67 16.94-16.293 16.641-93.548-2.41-187.315 2.26-280.633-5.146-46.975-3.728-90.758-22.367-129.862-49.105-107.25-73.333-163.955-174.175-156.786-305.388 7.682-140.625 99.93-264.6 244.36-304.725 25.898-7.195 53.575-8.195 80.815-8.21 165.81-.086 331.622-.213 497.433-.404 10.38-.012 20.775-.442 31.135-1.113 12.999-.842 19.78 4.918 19.803 17.954.142 79.135.115 158.27.354 237.405.045 15.005-7.138 19.893-21.586 19.847-129.4-.415-258.81-1.311-388.195.05-41.535.438-83.107 2.42-124.696 2.211-19.982-.1-23.108-3.416-21.485-23.271.373-4.568 2.054-9.732-2.75-12.643-5.769-3.496-9.826 1.154-13.517 4.579-30.074 27.909-61.006 54.756-94.461 78.616-8.863 6.32-7.64 12.57.651 19.39 31.655 26.035 62.923 52.54 94.433 78.75 3.854 3.207 7.962 7.803 13.69 4.687 5.588-3.04 4.614-8.972 3.908-13.998-1.703-12.108-.004-20.364 15.34-20.148 72.196 1.018 144.415 1.16 216.605 1.401 69.392.232 128.613 26.161 182.724 65.098 58.773 42.29 100.481 99.456 121.27 168.748 30.824 102.747 19.472 201.452-41.878 291.289-52.044 76.21-124.062 124.955-214.527 143.857-43.658 9.122-88.637 6.012-133.077 6.433-56.035.53-112.08.128-168.12.128l-.001 2.077z"/><path class="st1" d="M624.484 1317.484c0 127.116-.164 254.232.232 381.346.044 14.013-5.984 18.3-18.572 18.225-79.152-.47-158.304-.926-237.456-.992-14.65-.012-22.056-4.09-21.991-20.728.915-235.726-.198-471.473 2.807-707.169.912-71.488 6.504-143.367 27.986-213.198 30.832-100.225 78.081-190.71 146.207-270.549 80.738-94.616 178.887-164.755 294.416-210.123 74.661-29.32 151.484-46.323 232.909-45.17 166.958 2.362 333.966 1.257 500.953 1.453 14.422.017 28.869-.542 43.26-1.495 16.921-1.121 21.954 3.243 21.882 20.287-.294 69.905-.626 139.81-.853 209.716-.15 46.155-.08 45.868-46.466 45.744-167.548-.447-335.08-.884-502.643.589-130.421 1.146-233.526 53.072-319.88 147.298-56.568 61.726-92.154 132.632-110.11 214.219-9.81 44.577-12.175 89.132-12.372 134.133-.432 98.803-.134 197.609-.134 296.414h-.175z"/></svg>