<svg version="1.1"
  id="prefix__prefix__prefix__b5d1da7b-a9c6-4711-8d73-fa7937ec989e"
  xmlns="http://www.w3.org/2000/svg"
  x="0"
  y="0"
  viewBox="0 0 888 710.8"
  xml:space="preserve">
  <style>.prefix__prefix__prefix__st1{fill:#2f2e41}.prefix__prefix__prefix__st2{fill:#3f3d56}.prefix__prefix__prefix__st3{fill:#ef0092}.prefix__prefix__prefix__st4{fill:#fff}.prefix__prefix__prefix__st5{fill:#cecece}.prefix__prefix__prefix__st6{fill:#e6e6e6}.prefix__prefix__prefix__st7{fill:#e2e2e2}</style>
  <path d="M444.9 604.8c-143.6 0-260.1-116.4-260.1-260.1s116.5-260 260.1-260c143.7 0 260.1 116.4 260.1 260 0 69-27.4 135.1-76.2 183.9-48.6 49-114.9 76.4-183.9 76.2zm0-518.1c-142.3 0-258.1 115.8-258.1 258.1s115.8 258.1 258.1 258.1S703 487 703 344.7s-115.8-258-258.1-258z"
    fill="#ccc" />
  <path class="prefix__prefix__prefix__st1"
    d="M346.5 381.8h195v262h-195z" />
  <path class="prefix__prefix__prefix__st2"
    d="M313 373.8h262v104H313zm0 116h262v104H313zm0 116h262v104H313z" />
  <path class="prefix__prefix__prefix__st3"
    d="M313 417.9h262v16H313zm0 116h262v16H313zm0 116h262v16H313z" />
  <circle class="prefix__prefix__prefix__st3"
    cx="524"
    cy="388.8"
    r="6" />
  <circle class="prefix__prefix__prefix__st3"
    cx="545"
    cy="388.8"
    r="6" />
  <circle class="prefix__prefix__prefix__st3"
    cx="566"
    cy="388.8"
    r="6" />
  <circle class="prefix__prefix__prefix__st3"
    cx="524"
    cy="502.8"
    r="6" />
  <circle class="prefix__prefix__prefix__st3"
    cx="545"
    cy="502.8"
    r="6" />
  <circle class="prefix__prefix__prefix__st3"
    cx="566"
    cy="502.8"
    r="6" />
  <circle class="prefix__prefix__prefix__st3"
    cx="524"
    cy="616.8"
    r="6" />
  <circle class="prefix__prefix__prefix__st3"
    cx="545"
    cy="616.8"
    r="6" />
  <circle class="prefix__prefix__prefix__st3"
    cx="566"
    cy="616.8"
    r="6" />
  <path class="prefix__prefix__prefix__st2"
    d="M0 708.8h888v2H0zm241.9-437.7v186c0 8.1-6.6 14.7-14.7 14.7h-72.3c-8.1 0-14.7-6.6-14.7-14.7v-186c0-8.1 6.6-14.7 14.7-14.7h8.8c-1.5 3.6.3 7.6 3.8 9.1.8.3 1.7.5 2.6.5h41.2c3.9 0 7-3.1 7-7 0-.9-.2-1.8-.5-2.6h9.4c8.1 0 14.7 6.6 14.7 14.7z" />
  <path class="prefix__prefix__prefix__st4"
    d="M145.1 291.9h92v128h-92z" />
  <path class="prefix__prefix__prefix__st5"
    d="M171.2 379.9h36.7v2.1h-36.7z" />
  <path class="prefix__prefix__prefix__st3"
    d="M171.1 387.6h56.8v2.1h-56.8z" />
  <path class="prefix__prefix__prefix__st5"
    d="M171.1 394.9h44.6v2.1h-44.6zm0 7.2h26.2v2.1h-26.2zm0 7.3h39.3v2.1h-39.3zm-16.6-30.1h4.2v4.2h-4.2z" />
  <path class="prefix__prefix__prefix__st3"
    d="M154.5 386.6h4.2v4.2h-4.2z" />
  <path class="prefix__prefix__prefix__st5"
    d="M154.5 393.8h4.2v4.2h-4.2zm0 7.3h4.2v4.2h-4.2zm0 7.3h4.2v4.2h-4.2zm18.3-100.5h37v37h-37z" />
  <path class="prefix__prefix__prefix__st2"
    d="M321.1.1H567v157.5H321.1z" />
  <path class="prefix__prefix__prefix__st4"
    d="M339.6 44.2h203.9v77H339.6z" />
  <path class="prefix__prefix__prefix__st6"
    d="M376.8 57.5h48.9v2.8h-48.9z" />
  <path class="prefix__prefix__prefix__st3"
    d="M376.7 67.8h75.7v2.8h-75.7z" />
  <path class="prefix__prefix__prefix__st6"
    d="M376.7 77.5h59.4v2.8h-59.4zm0 9.7h34.9V90h-34.9zm0 9.6h52.4v2.8h-52.4zm-22.1-40.1h5.6v5.6h-5.6z" />
  <path class="prefix__prefix__prefix__st3"
    d="M354.6 66.4h5.6V72h-5.6z" />
  <path class="prefix__prefix__prefix__st6"
    d="M354.6 76.1h5.6v5.6h-5.6zm0 9.7h5.6v5.6h-5.6zm0 9.6h5.6v5.6h-5.6zm128.8-41.6h50.1v50.1h-50.1z" />
  <path class="prefix__prefix__prefix__st3"
    d="M321 0h245.9v10.4H321z" />
  <circle class="prefix__prefix__prefix__st4"
    cx="328.8"
    cy="5.3"
    r="2.1" />
  <circle class="prefix__prefix__prefix__st4"
    cx="336.1"
    cy="5.3"
    r="2.1" />
  <circle class="prefix__prefix__prefix__st4"
    cx="343.5"
    cy="5.3"
    r="2.1" />
  <path class="prefix__prefix__prefix__st2"
    d="M671.6 294.8h60v31h-60zm0 111h60v31h-60z" />
  <circle class="prefix__prefix__prefix__st1"
    cx="701.6"
    cy="365.8"
    r="50" />
  <circle class="prefix__prefix__prefix__st4"
    cx="701.6"
    cy="365.8"
    r="39" />
  <path class="prefix__prefix__prefix__st7"
    d="M688.9 355.1h30.2v1.7h-30.2z" />
  <path class="prefix__prefix__prefix__st3"
    d="M688.8 361.5h46.8v1.7h-46.8z" />
  <path class="prefix__prefix__prefix__st7"
    d="M688.8 367.4h36.7v1.7h-36.7zm0 6h21.6v1.7h-21.6zm0 6h32.4v1.7h-32.4zm-13.6-24.8h3.5v3.5h-3.5z" />
  <path class="prefix__prefix__prefix__st3"
    d="M675.2 360.6h3.5v3.5h-3.5z" />
  <path class="prefix__prefix__prefix__st7"
    d="M675.2 366.6h3.5v3.5h-3.5zm0 6h3.5v3.5h-3.5zm0 5.9h3.5v3.5h-3.5z" />
</svg>
