<?xml version="1.0" encoding="utf-8"?>
<!-- Generator: Adobe Illustrator 25.2.0, SVG Export Plug-In . SVG Version: 6.00 Build 0)  -->
<svg version="1.1" id="_x35_5370fff-d7e2-4a7c-8080-55f1e259b78c"
	 xmlns="http://www.w3.org/2000/svg" xmlns:xlink="http://www.w3.org/1999/xlink" x="0px" y="0px" viewBox="0 0 1040.3 649.2"
	 style="enable-background:new 0 0 1040.3 649.2;" xml:space="preserve">
<style type="text/css">
	.st0{fill:#3F3D56;}
	.st1{fill:#EF0092;}
	.st2{opacity:0.1;enable-background:new    ;}
	.st3{fill:url(#SVGID_1_);}
	.st4{fill:#F5F5F5;}
	.st5{fill:none;stroke:#535461;stroke-width:2;stroke-miterlimit:10;}
	.st6{opacity:0.2;enable-background:new    ;}
	.st7{fill:none;stroke:#535461;stroke-miterlimit:10;}
	.st8{opacity:0.2;fill:#F5F5F5;enable-background:new    ;}
	.st9{fill:#A8A8A8;}
	.st10{fill:url(#SVGID_2_);}
	.st11{fill:#F7C4A7;}
	.st12{fill:#535461;}
	.st13{fill:#575988;}
	.st14{fill:#E14B5A;}
	.st15{fill:#632652;}
	.st16{opacity:0.5;fill:#FFFFFF;enable-background:new    ;}
	.st17{fill:#67647E;}
</style>
<path class="st0" d="M169.2,408.2h85.3c4.9,0,8.8,4,8.8,8.8v23.3c0,4.9-4,8.8-8.8,8.8h-85.3c-4.9,0-8.8-4-8.8-8.8V417
	C160.3,412.1,164.3,408.2,169.2,408.2z"/>
<path class="st1" d="M272.2,408.2h85.3c4.9,0,8.8,4,8.8,8.8v23.3c0,4.9-4,8.8-8.8,8.8h-85.3c-4.9,0-8.8-4-8.8-8.8V417
	C263.3,412.1,267.3,408.2,272.2,408.2z"/>
<path class="st2" d="M272.2,408.2h85.3c4.9,0,8.8,4,8.8,8.8v23.3c0,4.9-4,8.8-8.8,8.8h-85.3c-4.9,0-8.8-4-8.8-8.8V417
	C263.3,412.1,267.3,408.2,272.2,408.2z"/>
<path class="st0" d="M375.2,408.2h85.3c4.9,0,8.8,4,8.8,8.8v23.3c0,4.9-4,8.8-8.8,8.8h-85.3c-4.9,0-8.8-4-8.8-8.8V417
	C366.3,412.1,370.3,408.2,375.2,408.2z"/>
<path class="st1" d="M478.2,408.2h85.3c4.9,0,8.8,4,8.8,8.8v23.3c0,4.9-4,8.8-8.8,8.8h-85.3c-4.9,0-8.8-4-8.8-8.8V417
	C469.3,412.1,473.3,408.2,478.2,408.2z"/>
<path class="st2" d="M478.2,408.2h85.3c4.9,0,8.8,4,8.8,8.8v23.3c0,4.9-4,8.8-8.8,8.8h-85.3c-4.9,0-8.8-4-8.8-8.8V417
	C469.3,412.1,473.3,408.2,478.2,408.2z"/>
<path class="st0" d="M581.2,408.2h85.3c4.9,0,8.8,4,8.8,8.8v23.3c0,4.9-4,8.8-8.8,8.8h-85.3c-4.9,0-8.8-4-8.8-8.8V417
	C572.3,412.1,576.3,408.2,581.2,408.2z"/>
<path class="st1" d="M684.2,408.2h85.3c4.9,0,8.8,4,8.8,8.8v23.3c0,4.9-4,8.8-8.8,8.8h-85.3c-4.9,0-8.8-4-8.8-8.8V417
	C675.3,412.1,679.3,408.2,684.2,408.2z"/>
<path class="st2" d="M684.2,408.2h85.3c4.9,0,8.8,4,8.8,8.8v23.3c0,4.9-4,8.8-8.8,8.8h-85.3c-4.9,0-8.8-4-8.8-8.8V417
	C675.3,412.1,679.3,408.2,684.2,408.2z"/>
<path class="st0" d="M769.5,408.2h-85.3c-4.9,0-8.8-4-8.8-8.8V376c0-4.9,4-8.8,8.8-8.8h85.3c4.9,0,8.8,4,8.8,8.8v23.3
	C778.3,404.2,774.4,408.2,769.5,408.2z"/>
<path class="st1" d="M666.5,408.2h-85.3c-4.9,0-8.8-4-8.8-8.8V376c0-4.9,4-8.8,8.8-8.8h85.3c4.9,0,8.8,4,8.8,8.8v23.3
	C675.3,404.2,671.4,408.2,666.5,408.2z"/>
<path class="st2" d="M666.5,408.2h-85.3c-4.9,0-8.8-4-8.8-8.8V376c0-4.9,4-8.8,8.8-8.8h85.3c4.9,0,8.8,4,8.8,8.8v23.3
	C675.3,404.2,671.4,408.2,666.5,408.2z"/>
<path class="st0" d="M563.5,408.2h-85.3c-4.9,0-8.8-4-8.8-8.8V376c0-4.9,4-8.8,8.8-8.8h85.3c4.9,0,8.8,4,8.8,8.8v23.3
	C572.3,404.2,568.4,408.2,563.5,408.2z"/>
<path class="st1" d="M460.5,408.2h-85.3c-4.9,0-8.8-4-8.8-8.8V376c0-4.9,4-8.8,8.8-8.8h85.3c4.9,0,8.8,4,8.8,8.8v23.3
	C469.3,404.2,465.4,408.2,460.5,408.2z"/>
<path class="st2" d="M460.5,408.2h-85.3c-4.9,0-8.8-4-8.8-8.8V376c0-4.9,4-8.8,8.8-8.8h85.3c4.9,0,8.8,4,8.8,8.8v23.3
	C469.3,404.2,465.4,408.2,460.5,408.2z"/>
<path class="st0" d="M357.5,408.2h-85.3c-4.9,0-8.8-4-8.8-8.8V376c0-4.9,4-8.8,8.8-8.8h85.3c4.9,0,8.8,4,8.8,8.8v23.3
	C366.3,404.2,362.4,408.2,357.5,408.2z"/>
<path class="st1" d="M254.5,408.2h-85.3c-4.9,0-8.8-4-8.8-8.8V376c0-4.9,4-8.8,8.8-8.8h85.3c4.9,0,8.8,4,8.8,8.8v23.3
	C263.3,404.2,259.4,408.2,254.5,408.2z"/>
<path class="st2" d="M254.5,408.2h-85.3c-4.9,0-8.8-4-8.8-8.8V376c0-4.9,4-8.8,8.8-8.8h85.3c4.9,0,8.8,4,8.8,8.8v23.3
	C263.3,404.2,259.4,408.2,254.5,408.2z"/>
<path class="st0" d="M169.2,326.2h85.3c4.9,0,8.8,4,8.8,8.8v23.3c0,4.9-4,8.8-8.8,8.8h-85.3c-4.9,0-8.8-4-8.8-8.8V335
	C160.3,330.1,164.3,326.2,169.2,326.2z"/>
<path class="st1" d="M272.2,326.2h85.3c4.9,0,8.8,4,8.8,8.8v23.3c0,4.9-4,8.8-8.8,8.8h-85.3c-4.9,0-8.8-4-8.8-8.8V335
	C263.3,330.1,267.3,326.2,272.2,326.2z"/>
<path class="st2" d="M272.2,326.2h85.3c4.9,0,8.8,4,8.8,8.8v23.3c0,4.9-4,8.8-8.8,8.8h-85.3c-4.9,0-8.8-4-8.8-8.8V335
	C263.3,330.1,267.3,326.2,272.2,326.2z"/>
<path class="st0" d="M375.2,326.2h85.3c4.9,0,8.8,4,8.8,8.8v23.3c0,4.9-4,8.8-8.8,8.8h-85.3c-4.9,0-8.8-4-8.8-8.8V335
	C366.3,330.1,370.3,326.2,375.2,326.2z"/>
<path class="st1" d="M478.2,326.2h85.3c4.9,0,8.8,4,8.8,8.8v23.3c0,4.9-4,8.8-8.8,8.8h-85.3c-4.9,0-8.8-4-8.8-8.8V335
	C469.3,330.1,473.3,326.2,478.2,326.2z"/>
<path class="st2" d="M478.2,326.2h85.3c4.9,0,8.8,4,8.8,8.8v23.3c0,4.9-4,8.8-8.8,8.8h-85.3c-4.9,0-8.8-4-8.8-8.8V335
	C469.3,330.1,473.3,326.2,478.2,326.2z"/>
<path class="st0" d="M581.2,326.2h85.3c4.9,0,8.8,4,8.8,8.8v23.3c0,4.9-4,8.8-8.8,8.8h-85.3c-4.9,0-8.8-4-8.8-8.8V335
	C572.3,330.1,576.3,326.2,581.2,326.2z"/>
<path class="st1" d="M684.2,326.2h85.3c4.9,0,8.8,4,8.8,8.8v23.3c0,4.9-4,8.8-8.8,8.8h-85.3c-4.9,0-8.8-4-8.8-8.8V335
	C675.3,330.1,679.3,326.2,684.2,326.2z"/>
<path class="st2" d="M684.2,326.2h85.3c4.9,0,8.8,4,8.8,8.8v23.3c0,4.9-4,8.8-8.8,8.8h-85.3c-4.9,0-8.8-4-8.8-8.8V335
	C675.3,330.1,679.3,326.2,684.2,326.2z"/>
<path class="st0" d="M769.5,326.2h-85.3c-4.9,0-8.8-4-8.8-8.8V294c0-4.9,4-8.8,8.8-8.8h85.3c4.9,0,8.8,4,8.8,8.8v23.3
	C778.3,322.2,774.4,326.2,769.5,326.2z"/>
<path class="st1" d="M666.5,326.2h-85.3c-4.9,0-8.8-4-8.8-8.8V294c0-4.9,4-8.8,8.8-8.8h85.3c4.9,0,8.8,4,8.8,8.8v23.3
	C675.3,322.2,671.4,326.2,666.5,326.2z"/>
<path class="st2" d="M666.5,326.2h-85.3c-4.9,0-8.8-4-8.8-8.8V294c0-4.9,4-8.8,8.8-8.8h85.3c4.9,0,8.8,4,8.8,8.8v23.3
	C675.3,322.2,671.4,326.2,666.5,326.2z"/>
<path class="st0" d="M563.5,326.2h-85.3c-4.9,0-8.8-4-8.8-8.8V294c0-4.9,4-8.8,8.8-8.8h85.3c4.9,0,8.8,4,8.8,8.8v23.3
	C572.3,322.2,568.4,326.2,563.5,326.2z"/>
<path class="st1" d="M460.5,326.2h-85.3c-4.9,0-8.8-4-8.8-8.8V294c0-4.9,4-8.8,8.8-8.8h85.3c4.9,0,8.8,4,8.8,8.8v23.3
	C469.3,322.2,465.4,326.2,460.5,326.2z"/>
<path class="st2" d="M460.5,326.2h-85.3c-4.9,0-8.8-4-8.8-8.8V294c0-4.9,4-8.8,8.8-8.8h85.3c4.9,0,8.8,4,8.8,8.8v23.3
	C469.3,322.2,465.4,326.2,460.5,326.2z"/>
<path class="st0" d="M357.5,326.2h-85.3c-4.9,0-8.8-4-8.8-8.8V294c0-4.9,4-8.8,8.8-8.8h85.3c4.9,0,8.8,4,8.8,8.8v23.3
	C366.3,322.2,362.4,326.2,357.5,326.2z"/>
<path class="st1" d="M254.5,326.2h-85.3c-4.9,0-8.8-4-8.8-8.8V294c0-4.9,4-8.8,8.8-8.8h85.3c4.9,0,8.8,4,8.8,8.8v23.3
	C263.3,322.2,259.4,326.2,254.5,326.2z"/>
<path class="st2" d="M254.5,326.2h-85.3c-4.9,0-8.8-4-8.8-8.8V294c0-4.9,4-8.8,8.8-8.8h85.3c4.9,0,8.8,4,8.8,8.8v23.3
	C263.3,322.2,259.4,326.2,254.5,326.2z"/>
<path class="st0" d="M169.2,246.2h85.3c4.9,0,8.8,4,8.8,8.8v23.3c0,4.9-4,8.8-8.8,8.8h-85.3c-4.9,0-8.8-4-8.8-8.8V255
	C160.3,250.1,164.3,246.2,169.2,246.2z"/>
<path class="st1" d="M272.2,246.2h85.3c4.9,0,8.8,4,8.8,8.8v23.3c0,4.9-4,8.8-8.8,8.8h-85.3c-4.9,0-8.8-4-8.8-8.8V255
	C263.3,250.1,267.3,246.2,272.2,246.2z"/>
<path class="st2" d="M272.2,246.2h85.3c4.9,0,8.8,4,8.8,8.8v23.3c0,4.9-4,8.8-8.8,8.8h-85.3c-4.9,0-8.8-4-8.8-8.8V255
	C263.3,250.1,267.3,246.2,272.2,246.2z"/>
<path class="st0" d="M375.2,246.2h85.3c4.9,0,8.8,4,8.8,8.8v23.3c0,4.9-4,8.8-8.8,8.8h-85.3c-4.9,0-8.8-4-8.8-8.8V255
	C366.3,250.1,370.3,246.2,375.2,246.2z"/>
<path class="st1" d="M478.2,246.2h85.3c4.9,0,8.8,4,8.8,8.8v23.3c0,4.9-4,8.8-8.8,8.8h-85.3c-4.9,0-8.8-4-8.8-8.8V255
	C469.3,250.1,473.3,246.2,478.2,246.2z"/>
<path class="st2" d="M478.2,246.2h85.3c4.9,0,8.8,4,8.8,8.8v23.3c0,4.9-4,8.8-8.8,8.8h-85.3c-4.9,0-8.8-4-8.8-8.8V255
	C469.3,250.1,473.3,246.2,478.2,246.2z"/>
<path class="st0" d="M581.2,246.2h85.3c4.9,0,8.8,4,8.8,8.8v23.3c0,4.9-4,8.8-8.8,8.8h-85.3c-4.9,0-8.8-4-8.8-8.8V255
	C572.3,250.1,576.3,246.2,581.2,246.2z"/>
<path class="st1" d="M684.2,246.2h85.3c4.9,0,8.8,4,8.8,8.8v23.3c0,4.9-4,8.8-8.8,8.8h-85.3c-4.9,0-8.8-4-8.8-8.8V255
	C675.3,250.1,679.3,246.2,684.2,246.2z"/>
<path class="st2" d="M684.2,246.2h85.3c4.9,0,8.8,4,8.8,8.8v23.3c0,4.9-4,8.8-8.8,8.8h-85.3c-4.9,0-8.8-4-8.8-8.8V255
	C675.3,250.1,679.3,246.2,684.2,246.2z"/>
<path class="st0" d="M769.5,246.2h-85.3c-4.9,0-8.8-4-8.8-8.8V214c0-4.9,4-8.8,8.8-8.8h85.3c4.9,0,8.8,4,8.8,8.8v23.3
	C778.3,242.2,774.4,246.2,769.5,246.2z"/>
<path class="st1" d="M666.5,246.2h-85.3c-4.9,0-8.8-4-8.8-8.8V214c0-4.9,4-8.8,8.8-8.8h85.3c4.9,0,8.8,4,8.8,8.8v23.3
	C675.3,242.2,671.4,246.2,666.5,246.2z"/>
<path class="st2" d="M666.5,246.2h-85.3c-4.9,0-8.8-4-8.8-8.8V214c0-4.9,4-8.8,8.8-8.8h85.3c4.9,0,8.8,4,8.8,8.8v23.3
	C675.3,242.2,671.4,246.2,666.5,246.2z"/>
<path class="st0" d="M563.5,246.2h-85.3c-4.9,0-8.8-4-8.8-8.8V214c0-4.9,4-8.8,8.8-8.8h85.3c4.9,0,8.8,4,8.8,8.8v23.3
	C572.3,242.2,568.4,246.2,563.5,246.2z"/>
<path class="st1" d="M460.5,246.2h-85.3c-4.9,0-8.8-4-8.8-8.8V214c0-4.9,4-8.8,8.8-8.8h85.3c4.9,0,8.8,4,8.8,8.8v23.3
	C469.3,242.2,465.4,246.2,460.5,246.2z"/>
<path class="st2" d="M460.5,246.2h-85.3c-4.9,0-8.8-4-8.8-8.8V214c0-4.9,4-8.8,8.8-8.8h85.3c4.9,0,8.8,4,8.8,8.8v23.3
	C469.3,242.2,465.4,246.2,460.5,246.2z"/>
<path class="st0" d="M357.5,246.2h-85.3c-4.9,0-8.8-4-8.8-8.8V214c0-4.9,4-8.8,8.8-8.8h85.3c4.9,0,8.8,4,8.8,8.8v23.3
	C366.3,242.2,362.4,246.2,357.5,246.2z"/>
<path class="st1" d="M254.5,246.2h-85.3c-4.9,0-8.8-4-8.8-8.8V214c0-4.9,4-8.8,8.8-8.8h85.3c4.9,0,8.8,4,8.8,8.8v23.3
	C263.3,242.2,259.4,246.2,254.5,246.2z"/>
<path class="st2" d="M254.5,246.2h-85.3c-4.9,0-8.8-4-8.8-8.8V214c0-4.9,4-8.8,8.8-8.8h85.3c4.9,0,8.8,4,8.8,8.8v23.3
	C263.3,242.2,259.4,246.2,254.5,246.2z"/>
<path class="st0" d="M169.2,164.2h85.3c4.9,0,8.8,4,8.8,8.8v23.3c0,4.9-4,8.8-8.8,8.8h-85.3c-4.9,0-8.8-4-8.8-8.8V173
	C160.3,168.1,164.3,164.2,169.2,164.2z"/>
<path class="st1" d="M272.2,164.2h85.3c4.9,0,8.8,4,8.8,8.8v23.3c0,4.9-4,8.8-8.8,8.8h-85.3c-4.9,0-8.8-4-8.8-8.8V173
	C263.3,168.1,267.3,164.2,272.2,164.2z"/>
<path class="st2" d="M272.2,164.2h85.3c4.9,0,8.8,4,8.8,8.8v23.3c0,4.9-4,8.8-8.8,8.8h-85.3c-4.9,0-8.8-4-8.8-8.8V173
	C263.3,168.1,267.3,164.2,272.2,164.2z"/>
<path class="st0" d="M375.2,164.2h85.3c4.9,0,8.8,4,8.8,8.8v23.3c0,4.9-4,8.8-8.8,8.8h-85.3c-4.9,0-8.8-4-8.8-8.8V173
	C366.3,168.1,370.3,164.2,375.2,164.2z"/>
<path class="st1" d="M478.2,164.2h85.3c4.9,0,8.8,4,8.8,8.8v23.3c0,4.9-4,8.8-8.8,8.8h-85.3c-4.9,0-8.8-4-8.8-8.8V173
	C469.3,168.1,473.3,164.2,478.2,164.2z"/>
<path class="st2" d="M478.2,164.2h85.3c4.9,0,8.8,4,8.8,8.8v23.3c0,4.9-4,8.8-8.8,8.8h-85.3c-4.9,0-8.8-4-8.8-8.8V173
	C469.3,168.1,473.3,164.2,478.2,164.2z"/>
<path class="st0" d="M581.2,164.2h85.3c4.9,0,8.8,4,8.8,8.8v23.3c0,4.9-4,8.8-8.8,8.8h-85.3c-4.9,0-8.8-4-8.8-8.8V173
	C572.3,168.1,576.3,164.2,581.2,164.2z"/>
<path class="st1" d="M684.2,164.2h85.3c4.9,0,8.8,4,8.8,8.8v23.3c0,4.9-4,8.8-8.8,8.8h-85.3c-4.9,0-8.8-4-8.8-8.8V173
	C675.3,168.1,679.3,164.2,684.2,164.2z"/>
<path class="st2" d="M684.2,164.2h85.3c4.9,0,8.8,4,8.8,8.8v23.3c0,4.9-4,8.8-8.8,8.8h-85.3c-4.9,0-8.8-4-8.8-8.8V173
	C675.3,168.1,679.3,164.2,684.2,164.2z"/>
<linearGradient id="SVGID_1_" gradientUnits="userSpaceOnUse" x1="722.82" y1="580.25" x2="722.82" y2="624.43" gradientTransform="matrix(1 0 0 -1 0 652)">
	<stop  offset="0" style="stop-color:#808080;stop-opacity:0.25"/>
	<stop  offset="0.54" style="stop-color:#808080;stop-opacity:0.12"/>
	<stop  offset="1" style="stop-color:#808080;stop-opacity:0.1"/>
</linearGradient>
<path class="st3" d="M676.2,27.6h93.3c4.9,0,8.8,4,8.8,8.8v26.5c0,4.9-4,8.8-8.8,8.8h-93.3c-4.9,0-8.8-4-8.8-8.8V36.4
	C667.3,31.5,671.3,27.6,676.2,27.6z"/>
<path class="st1" d="M765.5,70.2h-85.3c-4.9,0-8.8-4-8.8-8.8V38c0-4.9,4-8.8,8.8-8.8h85.3c4.9,0,8.8,4,8.8,8.8v23.3
	C774.3,66.2,770.4,70.2,765.5,70.2z"/>
<path class="st1" d="M666.5,164.2h-85.3c-4.9,0-8.8-4-8.8-8.8V132c0-4.9,4-8.8,8.8-8.8h85.3c4.9,0,8.8,4,8.8,8.8v23.3
	C675.3,160.2,671.4,164.2,666.5,164.2z"/>
<path class="st2" d="M666.5,164.2h-85.3c-4.9,0-8.8-4-8.8-8.8V132c0-4.9,4-8.8,8.8-8.8h85.3c4.9,0,8.8,4,8.8,8.8v23.3
	C675.3,160.2,671.4,164.2,666.5,164.2z"/>
<path class="st0" d="M563.5,164.2h-85.3c-4.9,0-8.8-4-8.8-8.8V132c0-4.9,4-8.8,8.8-8.8h85.3c4.9,0,8.8,4,8.8,8.8v23.3
	C572.3,160.2,568.4,164.2,563.5,164.2z"/>
<path class="st1" d="M460.5,164.2h-85.3c-4.9,0-8.8-4-8.8-8.8V132c0-4.9,4-8.8,8.8-8.8h85.3c4.9,0,8.8,4,8.8,8.8v23.3
	C469.3,160.2,465.4,164.2,460.5,164.2z"/>
<path class="st2" d="M460.5,164.2h-85.3c-4.9,0-8.8-4-8.8-8.8V132c0-4.9,4-8.8,8.8-8.8h85.3c4.9,0,8.8,4,8.8,8.8v23.3
	C469.3,160.2,465.4,164.2,460.5,164.2z"/>
<path class="st0" d="M357.5,164.2h-85.3c-4.9,0-8.8-4-8.8-8.8V132c0-4.9,4-8.8,8.8-8.8h85.3c4.9,0,8.8,4,8.8,8.8v23.3
	C366.3,160.2,362.4,164.2,357.5,164.2z"/>
<path class="st1" d="M254.5,164.2h-85.3c-4.9,0-8.8-4-8.8-8.8V132c0-4.9,4-8.8,8.8-8.8h85.3c4.9,0,8.8,4,8.8,8.8v23.3
	C263.3,160.2,259.4,164.2,254.5,164.2z"/>
<path class="st2" d="M254.5,164.2h-85.3c-4.9,0-8.8-4-8.8-8.8V132c0-4.9,4-8.8,8.8-8.8h85.3c4.9,0,8.8,4,8.8,8.8v23.3
	C263.3,160.2,259.4,164.2,254.5,164.2z"/>
<ellipse class="st4" cx="499" cy="535.7" rx="499" ry="113.5"/>
<path class="st5" d="M113.9,484.7c0,0,9-30.4-1.7-52.8c-4.5-9.4-5.9-19.9-3.9-30.1c1-4.8,2.4-9.6,4.3-14.2"/>
<path class="st1" d="M106,373.5c0,3.7,6.8,14.5,6.8,14.5s6.8-10.8,6.8-14.5c0-3.7-3-6.8-6.8-6.8S106,369.8,106,373.5z"/>
<path class="st1" d="M94.9,394.1c2,3.1,13.6,8.5,13.6,8.5s-0.2-12.7-2.2-15.9c-2-3.1-6.2-4-9.3-1.9C93.8,386.9,92.9,391,94.9,394.1
	L94.9,394.1z"/>
<path class="st1" d="M95.4,429.4c3.3,1.7,16,0.5,16,0.5s-6.6-10.9-9.9-12.6c-3.4-1.6-7.4-0.2-9,3.2
	C90.9,423.8,92.1,427.7,95.4,429.4L95.4,429.4z"/>
<path class="st1" d="M101.7,456c3,2.2,15.7,3.2,15.7,3.2s-4.7-11.8-7.7-14.1c-3.1-2-7.3-1.2-9.3,1.9C98.5,450,99.1,453.8,101.7,456
	L101.7,456z"/>
<path class="st1" d="M122.6,403.4c-2.7,2.6-15.1,5.3-15.1,5.3s3.1-12.4,5.7-15c2.7-2.6,6.9-2.5,9.5,0.1
	C125.3,396.5,125.3,400.8,122.6,403.4L122.6,403.4z"/>
<path class="st1" d="M129.7,434.6c-3.3,1.7-16,0.5-16,0.5s6.6-10.9,9.9-12.6c3.4-1.5,7.4,0,8.9,3.4
	C134,429.1,132.7,432.9,129.7,434.6z"/>
<path class="st1" d="M132.4,465.9c-3,2.2-15.7,3.2-15.7,3.2s4.7-11.8,7.7-14.1c3.1-2,7.3-1.2,9.3,1.9
	C135.6,459.9,135,463.7,132.4,465.9L132.4,465.9z"/>
<path class="st1" d="M597,312.4c0,0,32.9,32.9,14.3,81.7c-18.6,48.8,31.8,130,31.8,130s-0.5-0.1-1.5-0.3
	c-67.6-12-101.1-89.2-63.6-146.6C592,355.9,603.5,330.8,597,312.4z"/>
<path class="st6" d="M597,312.4c0,0,32.9,32.9,14.3,81.7c-18.6,48.8,31.8,130,31.8,130s-0.5-0.1-1.5-0.3
	c-67.6-12-101.1-89.2-63.6-146.6C592,355.9,603.5,330.8,597,312.4z"/>
<path class="st7" d="M597,312.4c0,0,18.6,40.3,0,73.2c-18.6,32.9-3.2,125.2,46.2,138.4"/>
<path class="st1" d="M538.4,445.4c0,0,37.5-6,40.9,27.7c3.4,33.7,72.2,38.3,72.2,38.3l-1.3,0.9c-56.8,37.3-111,23.7-102.8-25.7
	C550.4,468.1,550.2,449.6,538.4,445.4z"/>
<path class="st8" d="M538.4,445.4c0,0,37.5-6,40.9,27.7c3.4,33.7,72.2,38.3,72.2,38.3l-1.3,0.9c-56.8,37.3-111,23.7-102.8-25.7
	C550.4,468.1,550.2,449.6,538.4,445.4z"/>
<path class="st7" d="M538.4,445.4c0,0,29.1,6.4,26.7,32.9s43.3,58.2,86.4,33.1"/>
<path class="st9" d="M823.9,522.8c0,0-55.7-11.1-70.6-26s-81.7-40.8-89.1-22.3c-7.4,18.6-100.3,81.7-37.1,92.9
	c63.2,11.1,148.5,14.8,167.1,7.4C812.8,567.4,823.9,522.8,823.9,522.8z"/>
<path class="st6" d="M627.2,560.5c63.1,11.1,148.5,14.8,167.1,7.4c14.1-5.7,24-32.8,27.8-45.5l1.9,0.4c0,0-11.1,44.6-29.7,52
	c-18.6,7.4-104,3.7-167.1-7.4c-18.2-3.2-23.4-10.8-21.5-20.3C607.2,553.3,613.6,558.1,627.2,560.5z"/>
<linearGradient id="SVGID_2_" gradientUnits="userSpaceOnUse" x1="885.6232" y1="-76.3299" x2="885.6232" y2="526.5936" gradientTransform="matrix(1 0 0 -1 -79.84 526.58)">
	<stop  offset="0" style="stop-color:#808080;stop-opacity:0.25"/>
	<stop  offset="0.54" style="stop-color:#808080;stop-opacity:0.12"/>
	<stop  offset="1" style="stop-color:#808080;stop-opacity:0.1"/>
</linearGradient>
<path class="st10" d="M936.6,28.2c-1-2.5-2.6-4.7-4.6-6.4c-15-13.6-39.1-9.5-57.7-17.8c-4.3-1.9-8.7-4.6-13.3-3.8
	c-6.5,1-12.5,8.4-18.2,5.1l0.4,1.2l-0.4-0.2l4.2,12.7c1.6,4.9,3.3,9.9,6.4,13.9C838.3,46,836.7,69,849.9,84.2
	c3.4,3.9,7.6,7,12.3,9.2c0.2,0.4,0.4,0.9,0.6,1.3l0.5,0.2c1.2,2.8,2.1,5.8,2.7,8.8c-4.8,0.7-13.2,6-21.4,13.8l-16.5-0.6
	c-10.7-0.4-21-3.9-29.6-10.1l-49.4-35.4c-3.5,0.3-6.8,1.8-9.5,4.2c-6.1-6.4-11.3-13-10.9-17c0,0-22.9-42.9-31.3-21.5
	c-8.3,21.5,15.6,44,15.6,44l15.2,19.7c-0.6,3.5-1,6.9-1.1,10.4c18.8,21.5,84.4,40.9,84.4,40.9l10.2,0.5l0.1,0.5
	c-0.6,2.7-0.9,5.4-0.9,8.2c0,0.4,0,0.8,0,1.2s0,0.5,0,0.8c0.5,34.2,5.2,139,5.2,139c0.9-0.4,1.9-0.8,2.8-1.1l-0.7,9.3
	c0,0-43.8,6.1-76.1,18.4c-32.3,12.3-33.4,26.6-33.4,26.6v126.3c-9.2,4.7-23.8,11-31.3,7.6c-8.1-3.6-12.6-0.6-13.4,2.6l0,0
	c-0.2,0.6-0.2,1.3,0,1.9l0,0c0.1,0.3,0.2,0.6,0.3,0.8v0.1c0.1,0.3,0.3,0.5,0.5,0.7c3.1,3.1,70.9,29.6,86.5,25.5
	c0.5-0.1,1-0.3,1.4-0.5c0.2-0.1,0.3-0.1,0.4-0.2c0.1-0.1,0.6-0.3,0.8-0.4c0.3-0.2,0.3-0.2,0.5-0.3s0.5-0.3,0.7-0.5
	c0.2-0.2,0.3-0.3,0.4-0.4s0.4-0.3,0.6-0.5s0.3-0.3,0.4-0.5s0.4-0.4,0.5-0.6s0.2-0.3,0.3-0.5c0.1-0.2,0.3-0.5,0.5-0.7
	s0.2-0.3,0.3-0.5c0.1-0.2,0.3-0.5,0.4-0.8c0.1-0.3,0.2-0.3,0.2-0.5c0.1-0.2,0.3-0.6,0.4-0.9s0.1-0.3,0.2-0.5c0.1-0.2,0.2-0.6,0.3-1
	c0-0.2,0.1-0.3,0.1-0.5c0.1-0.3,0.2-0.7,0.3-1c0-0.2,0.1-0.3,0.1-0.5c0.1-0.4,0.2-0.8,0.2-1.1c0-0.1,0-0.3,0.1-0.4
	c0.1-0.4,0.1-0.8,0.2-1.2v-0.4c0.1-0.5,0.1-0.9,0.1-1.3v-0.3c0-0.5,0.1-1,0.1-1.5v-0.2c0-0.5,0-1,0-1.6v-0.1c0-6.1-0.7-12.2-2-18.1
	l0,0l3.9-107.5c20.5,0.3,41-0.4,61.4-2.3l2.2,51.3c0,0,0,33.7,11.5,49.1c9.8,13.1,21.2,71.2,24.2,87.6c-4.2,8-12.3,18-26.3,17.7
	c0,0-26.4-2.3-24.9,5l0,0c0,0.2,0.1,0.4,0.2,0.6l0,0c0.1,0.2,0.2,0.4,0.3,0.6l0,0c0.1,0.2,0.2,0.4,0.4,0.6l0.1,0.1
	c0.2,0.2,0.3,0.4,0.5,0.7v0c0.2,0.2,0.4,0.4,0.6,0.6l0.2,0.2c0.2,0.2,0.5,0.5,0.8,0.7c13.6,12.3,92.8,14.3,92.8,14.3v-0.3
	c0-0.1,0-0.2,0-0.3l0,0c0-3.5-0.5-22.2-5.3-36.2h1.1c0,0-11.5-103.2-20.8-115.5c0,0-2.5-54.4,3.1-88.5l1-0.4
	c26.3-9.8,28.2-34,25.4-51.8c5,1.6,7.9,2.7,7.9,2.7s-0.1-0.8-0.3-2.1l0.3,0.1c0,0-0.5-3.3-1.3-8.3c-1.9-13.9-5.5-38.3-9.4-49.8
	c-0.6-2.5-1.2-4.7-1.8-6.3c-2.2-6.9-3.8-14-4.6-21.2c-1.1-9.3-1.6-18.8-1.6-28.2c0.1-12.6,1-25.1,2.9-37.6c1.6-10.9,3-23.2,2.9-31.9
	c0.1-3-0.1-6-0.6-9c-1.4-6.4-7.5-10.5-13.9-13.1c-0.4-0.2-0.8-0.3-1.3-0.5c0.2-2.4,0.4-5.1,0.6-8c1.5,1.1,3.5,1.5,5.3,1.1
	c2.8-0.6,4.7-2.9,6.5-5c9.2-11.4,18.7-23.2,22.3-37.3c1.4-6.3,2.1-12.7,2-19.2c0-0.4,0-0.7,0-1.1C937.5,32.9,937.3,30.5,936.6,28.2z
	"/>
<path class="st11" d="M852.5,83.5c0,0,14,21,11,31s33,4,33,4s1-39,8-48S852.5,83.5,852.5,83.5z"/>
<path class="st11" d="M760,97c0,0-29-24-28-33c0,0-22-42-30-21s15,43,15,43l28,37L760,97z"/>
<path class="st12" d="M730.5,473.5c0,0-27,17-38,12s-15,3-12,6s68,29,83,25s7.4-36.8,7.4-36.8L730.5,473.5z"/>
<path class="st12" d="M873.5,546.5c0,0-6.5,27.5-29,27c0,0-34-3-21,9s89,14,89,14s0-41-14-50S873.5,546.5,873.5,546.5z"/>
<path class="st13" d="M832.5,352.5l3,70c0,0,0,33,11,48s24,90,24,90h38c0,0-11-101-20-113c0,0-4-89,10-109L832.5,352.5z"/>
<path class="st2" d="M832.5,352.5l3,70c0,0,0,33,11,48s24,90,24,90h38c0,0-11-101-20-113c0,0-4-89,10-109L832.5,352.5z"/>
<path class="st13" d="M911.5,289.5c0,0,23,55-19,71s-118,14-118,14l-4,116c0,0-47,6-48-9v-127c0,0,1-14,32-26s73-18,73-18l2-26
	L911.5,289.5z"/>
<path class="st2" d="M874.7,108.3c8-0.9,16.1,0.3,23.5,3.3c6.1,2.6,12,6.6,13.4,12.9c1.6,7.4-0.2,23.9-2.2,37.9
	c-3.2,22-3.6,44.2-1.2,66.3c1,9.2,2.5,17.2,4.4,20.8c6,11,12,63,12,63s-66-25-99-10c0,0-4.5-102.5-5-136
	C820.1,140.6,853,111,864,110C870.4,109.4,868.2,109,874.7,108.3z"/>
<path class="st14" d="M874.7,106.3c8-0.9,16.1,0.3,23.5,3.3c6.1,2.6,12,6.6,13.4,12.9c1.6,7.4-0.2,23.9-2.2,37.9
	c-3.2,22-3.6,44.2-1.2,66.3c0.8,7.1,2.3,14,4.4,20.8c4.5,13.5,12,63,12,63s-66-25-99-10c0,0-4.5-102.5-5-136
	C820.1,138.6,853,109,864,108C870.4,107.4,868.2,107,874.7,106.3z"/>
<path class="st2" d="M892.5,161.5l-71-4c0,0-4.5-34.8,5.7-34.4l70.3,2.4C897.5,125.5,912.5,143.5,892.5,161.5z"/>
<path class="st14" d="M892.5,159.5l-81-4c0,0-63-19-81-40c0,0,1-37,21-39l47.3,34.7c8.3,6.1,18.2,9.5,28.4,9.9l70.3,2.4
	C897.5,123.5,912.5,141.5,892.5,159.5z"/>
<path class="st2" d="M896,88c1.2-9.5,5.5-12.6,8.5-16.5c7-9-52,13-52,13c3.1,4.7,5.7,9.6,8,14.7c4.7,2.2,9.8,3.3,15,3.3
	C884.2,102.5,889.8,93.1,896,88z"/>
<circle class="st11" cx="875.5" cy="65.5" r="36"/>
<path class="st2" d="M852.8,40.3c-3.8-4.2-5.7-9.8-7.4-15.2l-4-12.4c5.4,3.2,11.2-4,17.4-5c4.4-0.7,8.7,1.9,12.8,3.8
	c17.8,8.1,41,4.1,55.3,17.4c2,1.7,3.5,3.8,4.4,6.3c0.7,2.3,0.9,4.6,0.8,7c0.1,6.3-0.5,12.6-1.9,18.8c-3.4,13.8-12.5,25.4-21.4,36.5
	c-1.7,2.1-3.6,4.4-6.2,4.9c-5.2,1.1-9.1-4.4-11.1-9.3c-2.6-6.5-4.6-13.2-5.8-20.1c-0.5-2.9-0.9-5.9-2.4-8.5
	c-3.1-5.5-10.7-10.7-15.4-14.9S857,44.9,852.8,40.3z"/>
<path class="st15" d="M852.8,39.3c-3.8-4.2-5.7-9.8-7.4-15.2l-4-12.4c5.4,3.2,11.2-4,17.4-5c4.4-0.7,8.7,1.9,12.8,3.8
	c17.8,8.1,41,4.1,55.3,17.4c2,1.7,3.5,3.8,4.4,6.3c0.7,2.3,0.9,4.6,0.8,7c0.1,6.3-0.5,12.6-1.9,18.8c-3.4,13.8-12.5,25.4-21.4,36.5
	c-1.7,2.1-3.6,4.4-6.2,4.9c-5.2,1.1-9.1-4.4-11.1-9.3c-2.6-6.5-4.6-13.2-5.8-20.1c-0.5-2.9-0.9-5.9-2.4-8.5
	c-3.1-5.5-10.7-10.7-15.4-14.9S857,43.9,852.8,39.3z"/>
<ellipse class="st11" cx="885" cy="69.5" rx="3" ry="6.5"/>
<path class="st2" d="M903,243c0,0-2,6-12,5s-39-3-39,0"/>
<path class="st16" d="M823.5,581.5c-1.8-1.7-2.7-3-2.9-4.2c-0.3,1.3,0.5,3,2.9,5.2c13,12,89,14,89,14s0-0.3,0-1
	C912,595.5,836.5,593.5,823.5,581.5z"/>
<path class="st16" d="M763.5,514.5c-15,4-80-22-83-25c-0.4-0.4-0.7-0.9-0.8-1.5c-0.4,1.2,0,2.5,0.8,3.5c3,3,68,29,83,25
	c7.7-2.1,9.4-11.7,9.3-20.6C772.7,504.2,770.6,512.6,763.5,514.5z"/>
<path class="st17" d="M502.1,503.7c0.8,0,1.5-0.7,1.5-1.5s-0.7-1.5-1.5-1.5s-1.5,0.7-1.5,1.5S501.3,503.7,502.1,503.7z"/>
<path class="st9" d="M91.5,477.2c0,0,37.3-1.2,48.6-9.2s57.4-17.6,60.2-4.7s56.1,63.9,13.9,64.3S116.3,521,105,514.2
	S91.5,477.2,91.5,477.2z"/>
<path class="st6" d="M215,523.1c-42.1,0.3-97.9-6.6-109.1-13.4c-8.6-5.2-12-23.9-13.1-32.5h-1.3c0,0,2.4,30.1,13.6,36.9
	s67,13.8,109.1,13.5c12.2-0.1,16.4-4.4,16.1-10.8C228.6,520.6,224,523,215,523.1z"/>
<path class="st1" d="M1031.5,573.2h-85.3c-4.9,0-8.8-4-8.8-8.8V541c0-4.9,4-8.8,8.8-8.8h85.3c4.9,0,8.8,4,8.8,8.8v23.3
	C1040.3,569.2,1036.4,573.2,1031.5,573.2z"/>
<path class="st2" d="M1031.5,573.2h-85.3c-4.9,0-8.8-4-8.8-8.8V541c0-4.9,4-8.8,8.8-8.8h85.3c4.9,0,8.8,4,8.8,8.8v23.3
	C1040.3,569.2,1036.4,573.2,1031.5,573.2z"/>
<path class="st0" d="M946.2,493.2h85.3c4.9,0,8.8,4,8.8,8.8v23.3c0,4.9-4,8.8-8.8,8.8h-85.3c-4.9,0-8.8-4-8.8-8.8V502
	C937.3,497.1,941.3,493.2,946.2,493.2z"/>
<path class="st1" d="M1031.5,493.2h-85.3c-4.9,0-8.8-4-8.8-8.8V461c0-4.9,4-8.8,8.8-8.8h85.3c4.9,0,8.8,4,8.8,8.8v23.3
	C1040.3,489.2,1036.4,493.2,1031.5,493.2z"/>
<path class="st2" d="M1031.5,493.2h-85.3c-4.9,0-8.8-4-8.8-8.8V461c0-4.9,4-8.8,8.8-8.8h85.3c4.9,0,8.8,4,8.8,8.8v23.3
	C1040.3,489.2,1036.4,493.2,1031.5,493.2z"/>
<path class="st0" d="M946.2,411.2h85.3c4.9,0,8.8,4,8.8,8.8v23.3c0,4.9-4,8.8-8.8,8.8h-85.3c-4.9,0-8.8-4-8.8-8.8V420
	C937.3,415.1,941.3,411.2,946.2,411.2z"/>
</svg>
